<svg width="300" height="100" viewBox="0 0 300 100" fill="none" xmlns="http://www.w3.org/2000/svg">
<path d="M72.0131 20.5584C72.0131 20.5584 89.3094 19.4246 98.8478 36.6252L70.8889 37.2094C70.8889 37.2094 65.6045 37.1459 61.2378 43.646C59.9949 46.3574 58.6689 49.1568 60.3405 54.5763C58.0107 50.8152 47.9629 34.1375 47.9629 34.1375C47.9629 34.1375 54.5427 21.6164 72.0131 20.5584Z" fill="#EA4335"/>
<path d="M98.5252 64.2C98.5252 64.2 90.8628 79.7487 71.1953 79.4033L84.6682 54.8992C84.6682 54.8992 87.3651 50.355 83.9221 43.3211C82.1957 40.8901 80.4358 38.3413 74.9052 37.0777C79.3281 36.9422 98.7933 36.5786 98.7933 36.5786C98.7933 36.5786 106.346 48.5415 98.5252 64.2Z" fill="#FBBC05"/>
<path d="M47.4773 65.3842C47.4773 65.3842 37.8421 50.9681 47.9791 34.1099L62.4612 58.0354C62.4612 58.0354 65.0474 62.6431 72.8598 63.1782C75.8278 62.8991 78.915 62.6472 82.7754 58.4926C80.6797 62.3906 71.2582 79.4293 71.2582 79.4293C71.2582 79.4293 57.1245 79.9875 47.4773 65.3842Z" fill="#34A853"/>
<path d="M59.4648 50.4873C59.4104 47.8961 60.1255 45.347 61.5199 43.1623C62.9142 40.9776 64.9251 39.2555 67.2982 38.2136C69.6713 37.1718 72.3 36.8572 74.8519 37.3094C77.4039 37.7617 79.7644 38.9605 81.6349 40.7544C83.5055 42.5483 84.8022 44.8566 85.3609 47.3874C85.9196 49.9182 85.7152 52.5578 84.7737 54.9725C83.8322 57.3872 82.1958 59.4685 80.0715 60.9531C77.9472 62.4377 75.4303 63.2591 72.8391 63.3132C69.3649 63.3858 66.004 62.0753 63.4959 59.67C60.9877 57.2648 59.5377 53.9617 59.4648 50.4873Z" fill="white"/>
<path d="M61.6557 50.4419C61.6103 48.2846 62.2056 46.1623 63.3663 44.3434C64.527 42.5244 66.2009 41.0905 68.1765 40.2228C70.152 39.3551 72.3405 39.0927 74.4651 39.4687C76.5898 39.8446 78.5553 40.8422 80.1131 42.3352C81.6709 43.8281 82.7511 45.7495 83.2171 47.8563C83.683 49.9631 83.5139 52.1608 82.731 54.1715C81.9481 56.1822 80.5866 57.9156 78.8187 59.1526C77.0507 60.3896 74.9558 61.0746 72.7986 61.121C71.3656 61.1518 69.9407 60.9 68.6051 60.3799C67.2695 59.8599 66.0495 59.0818 65.0147 58.09C63.9799 57.0983 63.1507 55.9124 62.5743 54.6002C61.998 53.2879 61.6858 51.8749 61.6557 50.4419Z" fill="#4285F4"/>
<path d="M127.649 63.1914C125.648 63.1914 123.851 62.7184 122.256 61.7723C120.661 60.7991 119.418 59.4881 118.526 57.8392C117.634 56.1632 117.188 54.2845 117.188 52.2031C117.188 50.1217 117.634 48.243 118.526 46.567C119.418 44.8911 120.661 43.5801 122.256 42.634C123.851 41.6879 125.648 41.2148 127.649 41.2148C129.892 41.2148 131.771 41.7419 133.285 42.7962C134.826 43.8234 135.92 45.202 136.569 46.932L133.447 48.2295C132.933 46.959 132.163 45.9994 131.136 45.3506C130.136 44.6748 128.919 44.337 127.487 44.337C126.27 44.337 125.135 44.6748 124.081 45.3506C123.026 45.9994 122.175 46.9185 121.526 48.1078C120.904 49.2972 120.593 50.6623 120.593 52.2031C120.593 53.7439 120.904 55.109 121.526 56.2984C122.175 57.4878 123.026 58.4204 124.081 59.0961C125.135 59.7449 126.27 60.0693 127.487 60.0693C128.946 60.0693 130.203 59.7314 131.257 59.0556C132.312 58.3798 133.096 57.4202 133.609 56.1767L136.691 57.4742C135.988 59.1772 134.853 60.5558 133.285 61.6101C131.744 62.6643 129.865 63.1914 127.649 63.1914Z" fill="#55585D"/>
<path d="M140.417 33.5107H143.863V42.0662L143.701 44.9045H143.863C144.431 43.8503 145.323 42.9718 146.54 42.2689C147.783 41.5661 149.135 41.2147 150.594 41.2147C153.108 41.2147 155.028 41.9581 156.352 43.4448C157.677 44.9045 158.339 46.8508 158.339 49.2836V62.5426H154.892V49.8107C154.892 47.9456 154.419 46.5669 153.473 45.6749C152.527 44.7829 151.297 44.3369 149.783 44.3369C148.702 44.3369 147.702 44.6612 146.783 45.31C145.891 45.9587 145.175 46.7967 144.634 47.8239C144.12 48.8511 143.863 49.9189 143.863 51.0271V62.5426H140.417V33.5107Z" fill="#55585D"/>
<path d="M163.304 41.8636H166.588V45.1884H166.751C167.156 44.0531 167.94 43.1205 169.102 42.3907C170.265 41.6338 171.481 41.2554 172.752 41.2554C173.698 41.2554 174.509 41.3905 175.184 41.6608V45.3912C174.319 44.9587 173.346 44.7424 172.265 44.7424C171.265 44.7424 170.346 45.0263 169.508 45.5939C168.67 46.1616 167.994 46.932 167.48 47.9051C166.994 48.8512 166.751 49.8784 166.751 50.9867V62.5427H163.304V41.8636Z" fill="#55585D"/>
<path d="M186.81 63.1914C184.783 63.1914 182.958 62.7048 181.336 61.7317C179.715 60.7586 178.444 59.434 177.525 57.7581C176.633 56.0821 176.187 54.2305 176.187 52.2031C176.187 50.1758 176.633 48.3241 177.525 46.6481C178.444 44.9722 179.715 43.6476 181.336 42.6745C182.958 41.7014 184.783 41.2148 186.81 41.2148C188.838 41.2148 190.662 41.7014 192.284 42.6745C193.906 43.6476 195.163 44.9722 196.055 46.6481C196.974 48.3241 197.434 50.1758 197.434 52.2031C197.434 54.2305 196.974 56.0821 196.055 57.7581C195.163 59.434 193.906 60.7586 192.284 61.7317C190.662 62.7048 188.838 63.1914 186.81 63.1914ZM186.81 60.0693C188.081 60.0693 189.257 59.7584 190.338 59.1367C191.446 58.4879 192.325 57.5689 192.974 56.3795C193.649 55.1901 193.987 53.798 193.987 52.2031C193.987 50.6083 193.649 49.2161 192.974 48.0267C192.325 46.8374 191.446 45.9318 190.338 45.3101C189.257 44.6613 188.081 44.337 186.81 44.337C185.54 44.337 184.35 44.6613 183.242 45.3101C182.134 45.9318 181.242 46.8374 180.566 48.0267C179.917 49.2161 179.593 50.6083 179.593 52.2031C179.593 53.798 179.917 55.1901 180.566 56.3795C181.242 57.5689 182.134 58.4879 183.242 59.1367C184.35 59.7584 185.54 60.0693 186.81 60.0693Z" fill="#55585D"/>
<path d="M201.04 41.8636H204.324V44.9046H204.486C205.081 43.8504 205.973 42.9719 207.163 42.269C208.352 41.5662 209.609 41.2148 210.933 41.2148C212.447 41.2148 213.758 41.5797 214.867 42.3096C216.002 43.0394 216.813 44.0126 217.299 45.229C218.029 44.0126 218.989 43.0394 220.178 42.3096C221.395 41.5797 222.8 41.2148 224.395 41.2148C226.774 41.2148 228.558 41.9447 229.747 43.4044C230.964 44.837 231.572 46.7968 231.572 49.2837V62.5427H228.166V49.8108C228.166 47.8916 227.774 46.4995 226.99 45.6345C226.206 44.7695 225.044 44.337 223.503 44.337C222.476 44.337 221.543 44.6343 220.705 45.229C219.867 45.8237 219.205 46.6211 218.718 47.6213C218.259 48.6214 218.029 49.7027 218.029 50.8651V62.5427H214.583V49.8514C214.583 47.9051 214.191 46.4995 213.407 45.6345C212.623 44.7695 211.474 44.337 209.96 44.337C208.933 44.337 208.001 44.6478 207.163 45.2695C206.325 45.8642 205.662 46.6752 205.176 47.7024C204.716 48.7025 204.486 49.7838 204.486 50.9461V62.5427H201.04V41.8636Z" fill="#55585D"/>
<path d="M245.723 63.1914C243.75 63.1914 241.979 62.7184 240.411 61.7723C238.843 60.8262 237.614 59.5286 236.721 57.8797C235.856 56.2038 235.424 54.3251 235.424 52.2437C235.424 50.2433 235.829 48.4052 236.64 46.7292C237.478 45.0533 238.654 43.7152 240.168 42.7151C241.682 41.7149 243.439 41.2148 245.439 41.2148C247.467 41.2148 249.224 41.6743 250.71 42.5934C252.197 43.4855 253.332 44.7289 254.116 46.3238C254.927 47.9186 255.333 49.7432 255.333 51.7976C255.333 52.2031 255.292 52.5545 255.211 52.8519H238.87C238.952 54.4197 239.33 55.7442 240.006 56.8255C240.682 57.9068 241.533 58.7177 242.56 59.2583C243.615 59.799 244.709 60.0693 245.845 60.0693C248.494 60.0693 250.535 58.8258 251.967 56.3389L254.887 57.7581C253.995 59.434 252.778 60.7586 251.237 61.7317C249.724 62.7048 247.885 63.1914 245.723 63.1914ZM251.683 50.0136C251.629 49.1486 251.386 48.2835 250.954 47.4185C250.521 46.5535 249.832 45.8237 248.886 45.229C247.967 44.6343 246.804 44.337 245.399 44.337C243.777 44.337 242.398 44.8641 241.263 45.9183C240.154 46.9455 239.425 48.3106 239.073 50.0136H251.683Z" fill="#55585D"/>
</svg>
