<svg width="362" height="100" viewBox="0 0 362 100" fill="none" xmlns="http://www.w3.org/2000/svg">
<path d="M36.1816 17.335C33.8722 17.335 32 19.2071 32 21.5166V74.4834C32 76.7928 33.8722 78.665 36.1816 78.665H72.4224C74.7318 78.665 76.604 76.7928 76.604 74.4834V34.0613L59.8775 17.335H36.1816Z" fill="#4E8DF5"/>
<path d="M76.6017 48.3494V34.0623L74.1625 31.623H62.3991C61.4677 31.623 61.0013 32.7491 61.6599 33.4077L76.6017 48.3494Z" fill="url(#paint0_linear_1_4896)"/>
<path d="M59.8828 17.335L76.6093 34.0613H64.0644C61.755 34.0613 59.8828 32.1892 59.8828 29.8797V17.335Z" fill="#A6C5FA"/>
<path d="M65.4583 48H43.1562V50.7877H65.4583V48Z" fill="white"/>
<path d="M65.4583 53.5752H43.1562V56.3629H65.4583V53.5752Z" fill="white"/>
<path d="M43.1562 59.1514H65.4583V61.9391H43.1562V59.1514Z" fill="white"/>
<path d="M59.8829 64.7266H43.1562V67.5143H59.8829V64.7266Z" fill="white"/>
<path d="M123.407 43.5398V47.99L133.969 47.9908C133.646 50.4665 132.815 52.2778 131.552 53.5402C130.004 55.0898 127.581 56.7985 123.33 56.7985C116.776 56.7985 111.651 51.5141 111.651 44.9573C111.651 38.4006 116.776 33.116 123.33 33.116C126.865 33.116 129.447 34.5065 131.354 36.2948L134.493 33.1554C131.83 30.6124 128.295 28.665 123.33 28.665C114.352 28.665 106.805 35.9765 106.805 44.9565C106.805 53.9364 114.352 61.2479 123.33 61.2479C128.176 61.2479 131.83 59.6589 134.691 56.6787C137.63 53.738 138.544 49.606 138.544 46.2681C138.544 45.2575 138.454 44.324 138.302 43.5398H123.407Z" fill="#55585D"/>
<path fill-rule="evenodd" clip-rule="evenodd" d="M150.715 61.249C156.515 61.249 161.242 56.7987 161.242 50.7588C161.242 44.6786 156.515 40.2686 150.715 40.2686C144.915 40.2686 140.188 44.6795 140.188 50.7588C140.188 56.7987 144.915 61.249 150.715 61.249ZM150.715 44.4013C153.894 44.4013 156.634 46.9837 156.634 50.7588C156.634 54.4937 153.894 57.1162 150.715 57.1162C147.537 57.1162 144.796 54.4937 144.796 50.7588C144.796 46.9837 147.538 44.4013 150.715 44.4013Z" fill="#55585D"/>
<path fill-rule="evenodd" clip-rule="evenodd" d="M184.208 50.7588C184.208 56.7987 179.481 61.249 173.681 61.249C167.881 61.249 163.154 56.7987 163.154 50.7588C163.154 44.6795 167.881 40.2686 173.681 40.2686C179.481 40.2686 184.208 44.6786 184.208 50.7588ZM179.6 50.7588C179.6 46.9837 176.86 44.4013 173.681 44.4013C170.504 44.4013 167.762 46.9837 167.762 50.7588C167.762 54.4937 170.503 57.1162 173.681 57.1162C176.86 57.1162 179.6 54.4937 179.6 50.7588Z" fill="#55585D"/>
<path fill-rule="evenodd" clip-rule="evenodd" d="M206.219 59.7377V40.9034H201.849V42.612H201.69C200.657 41.3799 198.671 40.2676 196.168 40.2676C190.924 40.2676 186.117 44.8761 186.117 50.7971C186.117 56.6779 190.924 61.2471 196.168 61.2471C198.671 61.2471 200.657 60.1347 201.69 58.8633H201.849V60.3734C201.849 64.3864 199.704 66.5324 196.247 66.5324C193.427 66.5324 191.679 64.5062 190.964 62.7975L186.952 64.4668C188.105 67.2477 191.163 70.6651 196.247 70.6651C201.65 70.6651 206.219 67.4864 206.219 59.7377ZM196.565 44.4003C199.703 44.4003 202.166 47.1024 202.166 50.798C202.166 54.4533 199.704 57.116 196.565 57.116C193.387 57.116 190.725 54.4533 190.725 50.798C190.725 47.1024 193.387 44.4003 196.565 44.4003Z" fill="#55585D"/>
<path d="M214.024 29.8818V60.6133H209.416V29.8818H214.024Z" fill="#55585D"/>
<path fill-rule="evenodd" clip-rule="evenodd" d="M235.393 56.5982L231.817 54.2144C230.626 55.9633 228.997 57.1159 226.653 57.1142C224.31 57.1142 222.641 56.0412 221.568 53.9354L235.591 48.1342L235.115 46.9423C234.24 44.5978 231.579 40.2666 226.136 40.2666C220.734 40.2666 216.245 44.5183 216.245 50.7567C216.245 56.6376 220.694 61.2469 226.653 61.2469C231.46 61.2469 234.24 58.3069 235.393 56.5982ZM230.188 46.5461L220.813 50.4401C220.694 46.3869 223.952 44.3205 226.294 44.3214C228.122 44.3214 229.671 45.2352 230.188 46.5461Z" fill="#55585D"/>
<path fill-rule="evenodd" clip-rule="evenodd" d="M254.362 32.1113H245.622V61.0854H254.362C257.33 61.0854 259.92 60.4784 262.132 59.2644C264.344 58.0234 266.044 56.3103 267.231 54.1251C268.418 51.9399 269.011 49.431 269.011 46.5983C269.011 43.7657 268.418 41.2567 267.231 39.0715C266.044 36.8863 264.344 35.1868 262.132 33.9728C259.92 32.7318 257.33 32.1113 254.362 32.1113ZM262.496 54.8535C260.5 56.8229 257.789 57.8076 254.362 57.8076H249.021V35.3891H254.362C257.789 35.3891 260.5 36.3738 262.496 38.3431C264.52 40.3125 265.531 43.0642 265.531 46.5983C265.531 50.1324 264.52 52.8841 262.496 54.8535Z" fill="#55585D"/>
<path fill-rule="evenodd" clip-rule="evenodd" d="M275.891 60.2769C277.51 61.2481 279.331 61.7337 281.354 61.7337C283.378 61.7337 285.199 61.2481 286.817 60.2769C288.436 59.3057 289.69 57.9838 290.581 56.3112C291.498 54.6386 291.957 52.7906 291.957 50.7673C291.957 48.744 291.498 46.896 290.581 45.2234C289.69 43.5507 288.436 42.2288 286.817 41.2576C285.199 40.2864 283.378 39.8008 281.354 39.8008C279.331 39.8008 277.51 40.2864 275.891 41.2576C274.273 42.2288 273.005 43.5507 272.087 45.2234C271.197 46.896 270.752 48.744 270.752 50.7673C270.752 52.7906 271.197 54.6386 272.087 56.3112C273.005 57.9838 274.273 59.3057 275.891 60.2769ZM284.875 57.6871C283.796 58.3075 282.622 58.6178 281.354 58.6178C280.086 58.6178 278.899 58.3075 277.793 57.6871C276.687 57.0396 275.797 56.1224 275.122 54.9353C274.475 53.7483 274.151 52.359 274.151 50.7673C274.151 49.1756 274.475 47.7862 275.122 46.5992C275.797 45.4122 276.687 44.5085 277.793 43.888C278.899 43.2405 280.086 42.9168 281.354 42.9168C282.622 42.9168 283.796 43.2405 284.875 43.888C285.981 44.5085 286.858 45.4122 287.505 46.5992C288.18 47.7862 288.517 49.1756 288.517 50.7673C288.517 52.359 288.18 53.7483 287.505 54.9353C286.858 56.1224 285.981 57.0396 284.875 57.6871Z" fill="#55585D"/>
<path d="M304.035 61.7337C302.038 61.7337 300.244 61.2616 298.652 60.3174C297.061 59.3462 295.82 58.0378 294.93 56.3921C294.039 54.7195 293.594 52.8446 293.594 50.7673C293.594 48.69 294.039 46.815 294.93 45.1424C295.82 43.4698 297.061 42.1614 298.652 41.2172C300.244 40.2729 302.038 39.8008 304.035 39.8008C306.274 39.8008 308.149 40.3269 309.659 41.379C311.197 42.4042 312.29 43.7801 312.937 45.5066L309.821 46.8016C309.309 45.5336 308.54 44.5759 307.515 43.9284C306.516 43.254 305.303 42.9168 303.873 42.9168C302.659 42.9168 301.526 43.254 300.473 43.9284C299.421 44.5759 298.572 45.4931 297.924 46.6802C297.304 47.8672 296.993 49.2296 296.993 50.7673C296.993 52.305 297.304 53.6674 297.924 54.8544C298.572 56.0414 299.421 56.9722 300.473 57.6466C301.526 58.2941 302.659 58.6178 303.873 58.6178C305.329 58.6178 306.584 58.2806 307.636 57.6061C308.688 56.9317 309.471 55.974 309.983 54.733L313.059 56.0279C312.357 57.7275 311.224 59.1034 309.659 60.1555C308.122 61.2077 306.247 61.7337 304.035 61.7337Z" fill="#55585D"/>
<path d="M317.455 60.196C318.939 61.2211 320.787 61.7337 322.999 61.7337C324.51 61.7337 325.885 61.4774 327.126 60.9649C328.367 60.4523 329.352 59.7239 330.081 58.7797C330.809 57.8085 331.173 56.6889 331.173 55.4209C331.173 53.9641 330.661 52.7367 329.635 51.7385C328.61 50.7133 327.086 49.9445 325.063 49.4319L322.068 48.663C320.881 48.3663 319.991 47.9886 319.397 47.53C318.804 47.0444 318.507 46.4239 318.507 45.6685C318.507 44.8592 318.925 44.1982 319.762 43.6856C320.625 43.1461 321.623 42.8763 322.756 42.8763C325.103 42.8763 326.735 43.7935 327.653 45.628L330.647 44.2522C330.054 42.8493 329.042 41.7567 327.612 40.9744C326.209 40.192 324.604 39.8008 322.797 39.8008C321.421 39.8008 320.139 40.0436 318.952 40.5292C317.765 41.0148 316.807 41.7163 316.079 42.6335C315.378 43.5238 315.027 44.5624 315.027 45.7494C315.027 47.2872 315.553 48.5416 316.605 49.5128C317.657 50.484 319.006 51.1719 320.652 51.5766L323.161 52.2241C324.725 52.6018 325.872 53.0604 326.6 53.5999C327.329 54.1125 327.693 54.8005 327.693 55.6637C327.693 56.6349 327.234 57.3903 326.317 57.9299C325.4 58.4424 324.294 58.6987 322.999 58.6987C321.785 58.6987 320.665 58.3615 319.64 57.6871C318.642 57.0126 317.887 56.0549 317.374 54.8139L314.299 56.1898C314.919 57.8085 315.971 59.1439 317.455 60.196Z" fill="#55585D"/>
<defs>
<linearGradient id="paint0_linear_1_4896" x1="68.2385" y1="48.3494" x2="68.2385" y2="31.2746" gradientUnits="userSpaceOnUse">
<stop stop-color="#4E8DF5"/>
<stop offset="1" stop-color="#3D6ACD"/>
</linearGradient>
</defs>
</svg>
