<svg width="300" height="100" viewBox="0 0 300 100" fill="none" xmlns="http://www.w3.org/2000/svg">
<path d="M53.5175 71.0109H63.2745V47.3153L49.3359 36.8613V66.8293C49.3359 69.1431 51.2107 71.0109 53.5175 71.0109Z" fill="#4285F4"/>
<path d="M96.7275 71.0109H106.484C108.798 71.0109 110.666 69.1362 110.666 66.8293V36.8613L96.7275 47.3153" fill="#34A853"/>
<path d="M96.7275 29.1954V47.3155L110.666 36.8615V31.2862C110.666 26.115 104.763 23.1669 100.63 26.2683" fill="#FBBC05"/>
<path d="M63.2747 47.3155L63.2744 29.1953L80.0007 41.74L96.7276 29.1954V47.3155L80.0007 59.8602" fill="#EA4335"/>
<path d="M49.3359 31.2862V36.8615L63.2745 47.3155L63.2742 29.1953L59.3717 26.2683C55.232 23.1669 49.3359 26.115 49.3359 31.2862Z" fill="#C5221F"/>
<path d="M156.714 65.6328C153.726 65.6328 150.973 64.9077 148.458 63.4577C145.943 62.0077 143.945 60.0101 142.466 57.4652C140.986 54.9202 140.246 52.1089 140.246 49.0312C140.246 45.9536 140.986 43.1423 142.466 40.5973C143.945 38.0523 145.943 36.0548 148.458 34.6048C150.973 33.1547 153.726 32.4297 156.714 32.4297C159.052 32.4297 161.242 32.844 163.284 33.6726C165.355 34.5012 167.057 35.6701 168.389 37.1793L165.681 39.8871C164.675 38.6442 163.388 37.6972 161.819 37.0462C160.251 36.3655 158.564 36.0252 156.759 36.0252C154.51 36.0252 152.409 36.5727 150.456 37.6676C148.532 38.7329 146.978 40.257 145.795 42.2397C144.641 44.1928 144.064 46.4567 144.064 49.0312C144.064 51.6058 144.641 53.8844 145.795 55.8672C146.978 57.8203 148.547 59.3443 150.5 60.4392C152.453 61.5046 154.539 62.0373 156.759 62.0373C158.889 62.0373 160.665 61.7117 162.085 61.0607C163.536 60.3801 164.778 59.4923 165.814 58.3973C166.584 57.5687 167.205 56.5774 167.679 55.4233C168.152 54.2396 168.448 52.9375 168.566 51.517H156.803V48.0103H172.073C172.221 48.8389 172.295 49.6083 172.295 50.3185C172.295 52.2716 171.984 54.1804 171.363 56.0447C170.741 57.8795 169.75 59.4923 168.389 60.8831C165.459 64.0496 161.568 65.6328 156.714 65.6328Z" fill="#55585D"/>
<path d="M176.757 42.2839H180.352V45.6131H180.53C181.181 44.4589 182.157 43.4972 183.459 42.7278C184.762 41.9584 186.138 41.5737 187.588 41.5737C189.245 41.5737 190.68 41.9732 191.893 42.7722C193.136 43.5712 194.024 44.6365 194.557 45.9682C195.356 44.6365 196.406 43.5712 197.708 42.7722C199.04 41.9732 200.579 41.5737 202.325 41.5737C204.929 41.5737 206.882 42.3727 208.184 43.9707C209.516 45.5391 210.182 47.6846 210.182 50.4071V64.9223H206.453V50.9842C206.453 48.8831 206.024 47.359 205.166 46.4121C204.308 45.4651 203.035 44.9916 201.348 44.9916C200.224 44.9916 199.203 45.3171 198.285 45.9682C197.368 46.6192 196.643 47.4922 196.11 48.5871C195.607 49.6821 195.356 50.8658 195.356 52.1383V64.9223H191.583V51.0285C191.583 48.8979 191.154 47.359 190.295 46.4121C189.437 45.4651 188.18 44.9916 186.522 44.9916C185.398 44.9916 184.377 45.3319 183.459 46.0126C182.542 46.6636 181.817 47.5514 181.284 48.6759C180.781 49.7708 180.53 50.9546 180.53 52.227V64.9223H176.757V42.2839Z" fill="#55585D"/>
<path d="M221.952 65.6326C220.294 65.6326 218.815 65.3071 217.513 64.656C216.211 64.005 215.204 63.1172 214.494 61.9927C213.784 60.8385 213.429 59.5365 213.429 58.0864C213.429 55.6894 214.331 53.8251 216.137 52.4934C217.942 51.1321 220.22 50.4515 222.972 50.4515C224.334 50.4515 225.591 50.5994 226.746 50.8954C227.929 51.1913 228.832 51.5316 229.453 51.9163V50.5403C229.453 48.8535 228.861 47.507 227.678 46.5008C226.494 45.4651 225 44.9472 223.194 44.9472C221.922 44.9472 220.753 45.2284 219.688 45.7906C218.622 46.3233 217.779 47.0779 217.158 48.0545L214.317 45.9238C215.204 44.5625 216.418 43.4972 217.957 42.7278C219.525 41.9584 221.256 41.5737 223.15 41.5737C226.228 41.5737 228.639 42.3875 230.385 44.0151C232.161 45.6131 233.049 47.8029 233.049 50.5847V64.9223H229.453V61.6819H229.276C228.625 62.7769 227.648 63.709 226.346 64.4785C225.044 65.2479 223.579 65.6326 221.952 65.6326ZM222.307 62.3034C223.579 62.3034 224.763 61.9779 225.858 61.3268C226.953 60.6758 227.826 59.8028 228.477 58.7079C229.128 57.6129 229.453 56.4144 229.453 55.1123C228.743 54.6389 227.87 54.2542 226.834 53.9582C225.799 53.6623 224.704 53.5143 223.55 53.5143C221.478 53.5143 219.91 53.9434 218.844 54.8016C217.809 55.6598 217.291 56.7695 217.291 58.1308C217.291 59.3737 217.764 60.3799 218.711 61.1493C219.658 61.9187 220.857 62.3034 222.307 62.3034Z" fill="#55585D"/>
<path d="M239.957 38.1113C239.218 38.1113 238.581 37.845 238.049 37.3123C237.516 36.7796 237.25 36.1434 237.25 35.4036C237.25 34.6637 237.516 34.0423 238.049 33.5392C238.581 33.0065 239.218 32.7402 239.957 32.7402C240.697 32.7402 241.333 33.0065 241.866 33.5392C242.399 34.0423 242.665 34.6637 242.665 35.4036C242.665 36.1434 242.399 36.7796 241.866 37.3123C241.363 37.845 240.727 38.1113 239.957 38.1113ZM238.093 42.2839H241.822V64.9223H238.093V42.2839Z" fill="#55585D"/>
<path d="M247.48 33.1401H251.253V64.9227H247.48V33.1401Z" fill="#55585D"/>
</svg>
