<svg width="300" height="100" viewBox="0 0 300 100" fill="none" xmlns="http://www.w3.org/2000/svg">
<path d="M77.6385 20H37.8969C31.8787 20 27 24.8789 27 30.8974V69.1026C27 75.1211 31.8787 80 37.8969 80H77.6385C83.6567 80 88.5354 75.1211 88.5354 69.1026V30.8974C88.5354 24.8789 83.6567 20 77.6385 20Z" fill="#001E36"/>
<path d="M40.8516 62.0753V35.6961C40.8516 35.5038 40.9342 35.4071 41.0993 35.4071C41.5391 35.4071 41.9407 35.4006 42.5464 35.3864C43.1515 35.3729 43.8051 35.3592 44.5072 35.3452C45.209 35.3316 45.9521 35.3178 46.7364 35.3039C47.5206 35.2903 48.298 35.2835 49.0686 35.2832C51.1597 35.2832 52.921 35.5447 54.3524 36.0676C55.6437 36.5044 56.8212 37.2236 57.7994 38.173C58.6286 38.9958 59.2694 39.9888 59.6776 41.0834C60.0638 42.1486 60.2594 43.2735 60.2556 44.4066C60.2556 46.6087 59.7465 48.4251 58.7282 49.8558C57.7032 51.2924 56.2625 52.3802 54.6002 52.9726C52.8664 53.6196 50.9398 53.839 48.821 53.839C48.2153 53.839 47.7887 53.8321 47.5413 53.8183C47.2936 53.8047 46.9222 53.7978 46.4268 53.7977V62.034C46.434 62.0845 46.4294 62.1359 46.4132 62.1843C46.3971 62.2327 46.3699 62.2766 46.3339 62.3127C46.2978 62.3487 46.2539 62.3759 46.2055 62.392C46.1572 62.4081 46.1057 62.4128 46.0552 62.4056H41.1405C40.9477 62.4056 40.8516 62.2959 40.8516 62.0753ZM46.4268 40.3609V48.9647C46.7841 48.9925 47.1143 49.0062 47.4174 49.006H48.7797C49.782 49.0027 50.7777 48.8437 51.7313 48.5348C52.5491 48.2919 53.2798 47.819 53.8365 47.1725C54.3731 46.5397 54.6414 45.659 54.6415 44.5304C54.6633 43.7319 54.4555 42.9439 54.0428 42.2599C53.609 41.5985 52.9821 41.0868 52.2472 40.7944C51.2877 40.4214 50.2627 40.2459 49.2338 40.2784C48.5732 40.2784 47.9885 40.2853 47.4794 40.299C46.9699 40.3132 46.619 40.3338 46.4268 40.3609Z" fill="#31A8FF"/>
<path d="M76.2176 47.3993C75.4419 47.0007 74.6156 46.709 73.7615 46.5324C72.8203 46.3164 71.8581 46.2056 70.8925 46.2021C70.3702 46.1879 69.8486 46.2505 69.3445 46.3879C69.0236 46.4593 68.7384 46.6422 68.5395 46.9039C68.405 47.1133 68.3334 47.3568 68.3332 47.6057C68.3407 47.8471 68.4278 48.0793 68.5808 48.2662C68.8219 48.5483 69.1166 48.7798 69.4477 48.9474C70.0362 49.2643 70.6427 49.5469 71.264 49.7936C72.6494 50.2574 73.9732 50.8882 75.2062 51.672C76.0462 52.2021 76.7412 52.9327 77.229 53.798C77.6391 54.6174 77.8445 55.5239 77.8275 56.4401C77.8522 57.6498 77.5066 58.8381 76.8369 59.8458C76.1199 60.8688 75.124 61.664 73.9678 62.137C72.7152 62.6872 71.1673 62.9624 69.3239 62.9626C68.1528 62.9745 66.9837 62.8638 65.8357 62.6324C64.9312 62.4665 64.0507 62.1892 63.2144 61.8067C63.1241 61.7601 63.049 61.6888 62.9979 61.601C62.9467 61.5133 62.9216 61.4128 62.9254 61.3113V56.8529C62.9205 56.8092 62.9274 56.765 62.9456 56.725C62.9638 56.6851 62.9925 56.6508 63.0287 56.6258C63.0642 56.6058 63.1049 56.597 63.1454 56.6007C63.186 56.6044 63.2244 56.6204 63.2557 56.6465C64.2433 57.2289 65.3157 57.6537 66.4342 57.9056C67.4201 58.1527 68.4314 58.2843 69.4477 58.2977C70.4107 58.2977 71.1193 58.1739 71.5736 57.9262C71.7787 57.8323 71.9523 57.6809 72.0731 57.4904C72.194 57.2999 72.2571 57.0785 72.2548 56.8529C72.2548 56.4955 72.0484 56.1515 71.6356 55.8208C71.2228 55.4906 70.3834 55.0915 69.1174 54.6236C67.8212 54.1725 66.5923 53.5475 65.4641 52.766C64.6572 52.2047 63.9928 51.4625 63.524 50.5986C63.118 49.7852 62.9128 48.8863 62.9254 47.9772C62.9231 46.885 63.2232 45.8134 63.7923 44.8811C64.4412 43.8545 65.373 43.0373 66.4756 42.528C67.6862 41.923 69.1998 41.6202 71.0164 41.6198C72.0802 41.6112 73.1431 41.6872 74.1949 41.8469C74.9566 41.9435 75.7013 42.1449 76.4078 42.4454C76.4638 42.4615 76.5154 42.4904 76.5584 42.5298C76.6013 42.5692 76.6346 42.618 76.6554 42.6725C76.6833 42.7733 76.6972 42.8775 76.6968 42.9821V47.1516C76.6996 47.2001 76.6897 47.2485 76.668 47.292C76.6462 47.3355 76.6135 47.3725 76.5729 47.3993C76.5177 47.4268 76.4569 47.441 76.3953 47.441C76.3336 47.441 76.2728 47.4268 76.2176 47.3993Z" fill="#31A8FF"/>
<path d="M106.645 63.7425V40.076C106.645 39.8914 106.718 39.7807 106.903 39.7807C108.306 39.7438 111.038 39.6699 113.733 39.6699C120.896 39.6699 123.554 43.6574 123.554 47.7187C123.554 53.5892 119.013 56.1368 113.438 56.1368C112.257 56.1368 111.961 56.1368 111.112 56.1368V63.7056C111.112 63.8902 111.038 64.001 110.817 64.001H106.94C106.755 64.001 106.645 63.9271 106.645 63.7425ZM111.112 43.6205V52.1862C111.74 52.2231 112.22 52.2231 113.438 52.2231C116.539 52.2231 119.161 51.1893 119.161 47.8295C119.161 45.1342 117.241 43.5466 113.844 43.5466C112.552 43.5466 111.518 43.5836 111.112 43.6205Z" fill="#000008"/>
<path d="M131.654 50.5984V63.7423C131.654 63.9269 131.617 64.0008 131.396 64.0008H127.482C127.261 64.0008 127.187 63.89 127.187 63.7054V37.9713C127.187 37.8237 127.261 37.7129 127.482 37.7129H131.396C131.617 37.7129 131.654 37.7867 131.654 37.9713V47.1278C133.057 46.094 134.608 45.4294 136.712 45.4294C139.518 45.4294 142.878 46.8324 142.878 52.7398V63.6685C142.878 63.9269 142.768 64.0008 142.583 64.0008H138.743C138.522 64.0008 138.411 63.89 138.411 63.6685V53.1829C138.411 50.7091 137.34 49.3061 135.199 49.3061C133.833 49.3061 132.614 49.7492 131.654 50.5984Z" fill="#000008"/>
<path d="M155.386 45.4297C161.072 45.4297 164.173 49.7495 164.173 54.8077C164.173 60.5305 160.518 64.3703 155.312 64.3703C149.146 64.3703 146.414 59.6074 146.414 54.9185C146.414 49.6756 149.847 45.4297 155.386 45.4297ZM155.164 49.1588C152.69 49.1588 150.918 51.3371 150.918 54.8446C150.918 58.2414 152.58 60.6043 155.386 60.6043C157.675 60.6043 159.632 58.7213 159.632 54.9185C159.632 51.854 158.302 49.1588 155.164 49.1588Z" fill="#000008"/>
<path d="M176.496 60.752V63.4103C176.496 63.6318 176.46 63.7795 176.275 63.8534C175.278 64.2226 174.355 64.3703 173.137 64.3703C170.109 64.3703 168.3 62.8934 168.3 59.2382V49.528H165.974C165.789 49.491 165.716 49.4172 165.716 49.1957V46.0943C165.716 45.8728 165.789 45.7989 166.011 45.7989H168.337C168.374 44.5067 168.522 42.1807 168.706 41.2576C168.743 41.073 168.817 40.9623 169.001 40.9253L172.731 40.4084C172.915 40.3715 172.989 40.4084 172.989 40.593C172.878 41.8114 172.804 43.9898 172.804 45.7989H176.386C176.57 45.7989 176.644 45.8728 176.644 46.0574V49.2695C176.644 49.4541 176.57 49.528 176.386 49.528H172.767V58.2783C172.767 59.9028 173.284 60.6782 174.872 60.6782C175.352 60.6782 175.758 60.6412 176.275 60.5305C176.386 60.4935 176.496 60.5305 176.496 60.752Z" fill="#000008"/>
<path d="M187.367 45.4297C193.053 45.4297 196.154 49.7495 196.154 54.8077C196.154 60.5305 192.499 64.3703 187.293 64.3703C181.127 64.3703 178.395 59.6074 178.395 54.9185C178.395 49.6756 181.829 45.4297 187.367 45.4297ZM187.146 49.1588C184.672 49.1588 182.9 51.3371 182.9 54.8446C182.9 58.2414 184.561 60.6043 187.367 60.6043C189.656 60.6043 191.613 58.7213 191.613 54.9185C191.613 51.854 190.284 49.1588 187.146 49.1588Z" fill="#000008"/>
<path d="M210.497 50.0818C209.353 49.4541 207.507 49.0111 205.882 49.0111C203.925 49.0111 203.261 49.8233 203.261 50.5987C203.261 51.4109 203.815 51.9648 206.178 52.8878C210.387 54.4385 211.827 56.0999 211.827 58.7213C211.827 62.1919 209.094 64.3703 204.553 64.3703C202.375 64.3703 200.455 63.9641 199.347 63.3365C199.163 63.2257 199.089 63.1519 199.089 62.9303V59.4228C199.089 59.2382 199.236 59.1644 199.384 59.2382C200.972 60.272 203.002 60.7151 204.664 60.7151C206.584 60.7151 207.507 60.0505 207.507 59.0905C207.507 58.1675 206.805 57.5768 204.516 56.6537C200.492 55.1769 199.052 53.5154 199.052 50.8571C199.052 48.0511 201.341 45.4297 205.956 45.4297C208.098 45.4297 209.722 45.7251 210.608 46.1681C210.793 46.2789 210.83 46.4266 210.83 46.6112V49.8603C210.83 50.0449 210.719 50.1556 210.497 50.0818Z" fill="#000008"/>
<path d="M219.45 50.5984V63.7423C219.45 63.9269 219.413 64.0008 219.192 64.0008H215.278C215.057 64.0008 214.983 63.89 214.983 63.7054V37.9713C214.983 37.8237 215.057 37.7129 215.278 37.7129H219.192C219.413 37.7129 219.45 37.7867 219.45 37.9713V47.1278C220.853 46.094 222.404 45.4294 224.508 45.4294C227.314 45.4294 230.674 46.8324 230.674 52.7398V63.6685C230.674 63.9269 230.563 64.0008 230.379 64.0008H226.539C226.318 64.0008 226.207 63.89 226.207 63.6685V53.1829C226.207 50.7091 225.136 49.3061 222.995 49.3061C221.629 49.3061 220.41 49.7492 219.45 50.5984Z" fill="#000008"/>
<path d="M243.182 45.4297C248.867 45.4297 251.969 49.7495 251.969 54.8077C251.969 60.5305 248.314 64.3703 243.108 64.3703C236.942 64.3703 234.21 59.6074 234.21 54.9185C234.21 49.6756 237.643 45.4297 243.182 45.4297ZM242.96 49.1588C240.486 49.1588 238.714 51.3371 238.714 54.8446C238.714 58.2414 240.376 60.6043 243.182 60.6043C245.471 60.6043 247.428 58.7213 247.428 54.9185C247.428 51.854 246.098 49.1588 242.96 49.1588Z" fill="#000008"/>
<path d="M262.932 45.4297C269.024 45.4297 272.052 49.5649 272.052 54.2908C272.052 61.0474 266.588 64.3703 261.012 64.3703C260.606 64.3703 260.237 64.3333 259.905 64.2964V70.9422C259.905 71.0899 259.868 71.2007 259.646 71.2376C258.354 71.3853 255.88 71.6068 255.696 71.6068C255.474 71.6068 255.437 71.5699 255.437 71.3853V49.2695C255.437 48.8265 255.4 47.6081 255.327 47.0912C255.327 47.0542 255.327 46.9435 255.474 46.9066C257.136 46.3527 259.72 45.4297 262.932 45.4297ZM262.526 49.2326C261.529 49.2326 260.717 49.3434 259.905 49.6018V60.4935C260.311 60.6043 260.902 60.6043 261.382 60.6043C264.262 60.6043 267.474 58.9059 267.474 54.5862C267.474 51.2263 265.665 49.2326 262.526 49.2326Z" fill="#000008"/>
</svg>
