<svg width="374" height="100" viewBox="0 0 374 100" fill="none" xmlns="http://www.w3.org/2000/svg">
<g filter="url(#filter0_d_1_6307)">
<path d="M145.614 79.386C161.843 79.0469 174.725 65.6155 174.386 49.386C174.047 33.1566 160.615 20.2749 144.386 20.614C128.157 20.9531 115.275 34.3846 115.614 50.614C115.953 66.8435 129.385 79.7251 145.614 79.386Z" fill="url(#paint0_linear_1_6307)"/>
</g>
<path d="M145.568 77.1827C160.58 76.869 172.496 64.4449 172.182 49.4327C171.868 34.4204 159.444 22.5049 144.432 22.8186C129.42 23.1323 117.504 35.5564 117.818 50.5686C118.132 65.5808 130.556 77.4963 145.568 77.1827Z" fill="url(#paint1_radial_1_6307)"/>
<path d="M144.616 29.4294C144.433 29.4333 144.269 29.2989 144.265 29.1152L144.165 24.317C144.161 24.1334 144.319 23.9923 144.503 23.9884C144.686 23.9846 144.85 24.119 144.854 24.3026L144.954 29.1008C144.935 29.285 144.8 29.4256 144.616 29.4294Z" fill="#F3F3F3"/>
<path d="M144.621 29.4518C144.414 29.4561 144.25 29.2988 144.246 29.1151L144.146 24.3169C144.142 24.1333 144.299 23.9692 144.506 23.9649C144.713 23.9606 144.877 24.1179 144.881 24.3016L144.981 29.0998C144.985 29.2834 144.804 29.448 144.621 29.4518ZM144.507 24.0108C144.346 24.0142 144.188 24.1553 144.192 24.316L144.292 29.1141C144.295 29.2749 144.436 29.4097 144.62 29.4059C144.78 29.4025 144.938 29.2614 144.935 29.1007L144.835 24.3025C144.808 24.1423 144.668 24.0074 144.507 24.0108Z" fill="white"/>
<path d="M146.858 26.8093C146.674 26.7902 146.533 26.6553 146.529 26.4717L146.646 24.3333C146.665 24.1491 146.822 24.008 147.007 24.0271C147.191 24.0462 147.331 24.1811 147.335 24.3648L147.219 26.5032C147.2 26.6874 147.042 26.8285 146.858 26.8093Z" fill="#F3F3F3"/>
<path d="M146.862 26.8335C146.655 26.8148 146.514 26.657 146.51 26.4734L146.626 24.3349C146.646 24.1508 146.803 23.9867 147.01 24.0054C147.217 24.024 147.358 24.1818 147.362 24.3655L147.246 26.5039C147.227 26.711 147.069 26.8521 146.862 26.8335ZM147.011 24.0513C146.85 24.0546 146.692 24.1728 146.695 24.3335L146.579 26.4719C146.583 26.6326 146.7 26.768 146.884 26.7871C147.045 26.7837 147.203 26.6656 147.2 26.5049L147.316 24.3664C147.313 24.2057 147.172 24.0709 147.011 24.0513Z" fill="white"/>
<path d="M148.644 29.7587C148.46 29.7166 148.342 29.5583 148.361 29.3741L149.204 24.6481C149.246 24.4635 149.404 24.3454 149.589 24.3874C149.773 24.4295 149.891 24.5878 149.872 24.772L149.029 29.498C149.01 29.6592 148.828 29.7778 148.644 29.7587Z" fill="#F3F3F3"/>
<path d="M148.645 29.7824C148.437 29.7408 148.319 29.5595 148.338 29.3754L149.181 24.6494C149.223 24.4647 149.403 24.3231 149.611 24.3647C149.819 24.4063 149.937 24.5876 149.918 24.7718L149.075 29.4978C149.033 29.6824 148.852 29.801 148.645 29.7824ZM149.612 24.4107C149.451 24.3911 149.292 24.4863 149.249 24.6479L148.407 29.3739C148.387 29.5351 148.482 29.6939 148.667 29.736C148.828 29.7556 148.987 29.6604 149.029 29.4987L149.872 24.7727C149.891 24.5886 149.774 24.4532 149.612 24.4107Z" fill="white"/>
<path d="M151.357 27.6346C151.172 27.5925 151.053 27.4112 151.095 27.2266L151.626 25.1484C151.668 24.9638 151.85 24.8681 152.035 24.9102C152.219 24.9523 152.338 25.1336 152.296 25.3182L151.765 27.3964C151.723 27.581 151.541 27.6767 151.357 27.6346Z" fill="#F3F3F3"/>
<path d="M151.356 27.6562C151.171 27.6141 151.029 27.4103 151.094 27.2252L151.625 25.1471C151.667 24.9624 151.871 24.8433 152.056 24.8854C152.24 24.9275 152.382 25.1312 152.317 25.3163L151.787 27.3945C151.745 27.5791 151.563 27.6978 151.356 27.6562ZM152.057 24.9543C151.896 24.9117 151.714 25.0074 151.671 25.1691L151.14 27.2472C151.098 27.4089 151.193 27.5677 151.378 27.6098C151.539 27.6523 151.721 27.5567 151.764 27.395L152.294 25.3168C152.314 25.1556 152.219 24.9968 152.057 24.9543Z" fill="white"/>
<path d="M152.548 30.8472C152.363 30.7822 152.29 30.577 152.355 30.4149L154.099 25.9456C154.165 25.7835 154.37 25.6874 154.532 25.7758C154.717 25.8409 154.79 26.046 154.725 26.2082L152.981 30.6774C152.915 30.8396 152.711 30.9357 152.548 30.8472Z" fill="#F3F3F3"/>
<path d="M152.549 30.8713C152.364 30.8062 152.268 30.6015 152.333 30.4164L154.077 25.9472C154.142 25.7621 154.347 25.6889 154.555 25.7535C154.74 25.8185 154.836 26.0232 154.771 26.2083L153.027 30.6775C152.939 30.8631 152.735 30.9593 152.549 30.8713ZM154.533 25.7999C154.371 25.7343 154.189 25.8071 154.123 25.9692L152.379 30.4384C152.314 30.6006 152.409 30.7594 152.571 30.8249C152.733 30.8904 152.915 30.8177 152.981 30.6555L154.725 26.1863C154.768 26.0476 154.695 25.8654 154.533 25.7999Z" fill="white"/>
<path d="M155.619 29.315C155.456 29.2265 155.384 29.0443 155.449 28.8822L156.373 26.9565C156.462 26.7939 156.644 26.7212 156.83 26.8092C156.992 26.8977 157.065 27.0799 157 27.242L156.075 29.1677C155.987 29.3303 155.804 29.403 155.619 29.315Z" fill="#F3F3F3"/>
<path d="M155.617 29.3369C155.431 29.2489 155.358 29.0437 155.446 28.8581L156.37 26.9325C156.458 26.7469 156.663 26.6737 156.849 26.7617C157.035 26.8497 157.108 27.0549 157.02 27.2404L156.095 29.1661C156.007 29.3517 155.802 29.4249 155.617 29.3369ZM156.827 26.8081C156.665 26.7426 156.482 26.7923 156.417 26.9545L155.492 28.8801C155.426 29.0193 155.499 29.2015 155.639 29.2905C155.801 29.356 155.983 29.3062 156.049 29.1441L156.973 27.2184C157.039 27.0793 156.967 26.897 156.827 26.8081Z" fill="white"/>
<path d="M156.148 32.7021C155.985 32.5906 155.934 32.385 156.046 32.2448L158.626 28.2175C158.715 28.0548 158.921 28.0276 159.084 28.116C159.247 28.2275 159.297 28.4331 159.185 28.5733L156.605 32.6006C156.516 32.7633 156.311 32.8135 156.148 32.7021Z" fill="#F3F3F3"/>
<path d="M156.147 32.725C155.984 32.6136 155.933 32.3849 156.022 32.2223L158.602 28.195C158.713 28.0319 158.919 27.9816 159.105 28.0926C159.268 28.204 159.319 28.4326 159.23 28.5953L156.65 32.6226C156.539 32.7857 156.31 32.8364 156.147 32.725ZM159.083 28.139C158.943 28.05 158.737 28.0773 158.648 28.217L156.068 32.2443C155.979 32.384 156.029 32.5667 156.169 32.6556C156.308 32.7446 156.514 32.7173 156.603 32.5777L159.184 28.5733C159.273 28.4336 159.223 28.2279 159.083 28.139Z" fill="white"/>
<path d="M159.48 31.7823C159.34 31.6704 159.289 31.4648 159.401 31.3246L160.698 29.6209C160.81 29.4807 161.016 29.4535 161.156 29.5654C161.296 29.6773 161.347 29.8829 161.235 30.0231L159.938 31.7268C159.826 31.867 159.62 31.8943 159.48 31.7823Z" fill="#F3F3F3"/>
<path d="M159.459 31.8064C159.295 31.695 159.268 31.4659 159.379 31.3028L160.676 29.5991C160.787 29.4359 161.016 29.4082 161.18 29.5426C161.343 29.654 161.371 29.8831 161.259 30.0462L159.963 31.75C159.851 31.9131 159.622 31.9408 159.459 31.8064ZM161.135 29.5895C160.995 29.4775 160.812 29.5043 160.7 29.6445L159.403 31.3482C159.314 31.4879 159.341 31.6711 159.481 31.783C159.621 31.8949 159.804 31.8681 159.916 31.728L161.213 30.0242C161.302 29.8846 161.274 29.6784 161.135 29.5895Z" fill="white"/>
<path d="M159.322 35.2312C159.181 35.0963 159.177 34.8897 159.313 34.772L162.64 31.3263C162.775 31.1856 162.982 31.2043 163.099 31.3167C163.216 31.4291 163.244 31.6581 163.109 31.7758L159.804 35.2211C159.669 35.3618 159.463 35.3661 159.322 35.2312Z" fill="#F3F3F3"/>
<path d="M159.304 35.2549C159.163 35.12 159.158 34.8904 159.293 34.7498L162.62 31.304C162.755 31.1634 162.985 31.1586 163.125 31.2934C163.266 31.4283 163.271 31.6579 163.136 31.7985L159.809 35.2443C159.674 35.3849 159.444 35.3897 159.304 35.2549ZM163.103 31.3169C162.986 31.2045 162.779 31.2088 162.667 31.326L159.34 34.7718C159.227 34.889 159.231 35.0956 159.349 35.208C159.466 35.3204 159.672 35.3161 159.785 35.1989L163.112 31.7531C163.225 31.6359 163.221 31.4522 163.103 31.3169Z" fill="white"/>
<path d="M162.766 34.9764C162.648 34.841 162.644 34.6344 162.779 34.5167L164.38 33.1052C164.516 32.9875 164.723 33.0062 164.841 33.1415C164.958 33.2769 164.963 33.4835 164.827 33.6012L163.226 35.0127C163.091 35.1304 162.884 35.1117 162.766 34.9764Z" fill="#F3F3F3"/>
<path d="M162.739 34.9986C162.598 34.8407 162.616 34.6107 162.752 34.493L164.353 33.0815C164.488 32.9409 164.718 32.959 164.859 33.1169C165 33.2747 164.982 33.5047 164.846 33.6224L163.245 35.0339C163.11 35.1746 162.88 35.1564 162.739 34.9986ZM164.813 33.1408C164.696 33.0054 164.512 33.0093 164.376 33.104L162.775 34.5155C162.663 34.6327 162.644 34.8168 162.761 34.9522C162.879 35.0875 163.063 35.0837 163.198 34.989L164.8 33.5775C164.935 33.4598 164.931 33.2761 164.813 33.1408Z" fill="white"/>
<path d="M161.915 38.3003C161.797 38.142 161.839 37.9345 161.997 37.8393L165.936 35.0927C166.095 34.9975 166.303 35.0391 166.397 35.1749C166.516 35.3332 166.474 35.5408 166.315 35.636L162.376 38.3826C162.24 38.4773 162.033 38.4357 161.915 38.3003Z" fill="#F3F3F3"/>
<path d="M161.891 38.3008C161.773 38.1425 161.814 37.912 161.972 37.7938L165.911 35.0473C166.07 34.9291 166.3 34.9702 166.419 35.1515C166.537 35.3098 166.496 35.5403 166.338 35.6585L162.399 38.4051C162.24 38.5232 162.01 38.4821 161.891 38.3008ZM166.374 35.1984C166.279 35.0625 166.095 35.0205 165.959 35.1152L162.02 37.8617C161.884 37.9564 161.842 38.1411 161.96 38.2994C162.055 38.4352 162.239 38.4773 162.375 38.3826L166.314 35.636C166.449 35.5183 166.469 35.3342 166.374 35.1984Z" fill="white"/>
<path d="M165.343 38.7122C165.248 38.5534 165.289 38.3459 165.448 38.2507L167.286 37.1557C167.444 37.0606 167.653 37.1251 167.748 37.2839C167.843 37.4427 167.801 37.6503 167.643 37.7455L165.805 38.8404C165.646 38.9356 165.438 38.871 165.343 38.7122Z" fill="#F3F3F3"/>
<path d="M165.324 38.7354C165.228 38.5536 165.27 38.3461 165.429 38.2509L167.266 37.1559C167.425 37.0608 167.656 37.1248 167.751 37.2836C167.847 37.4654 167.805 37.6729 167.646 37.7681L165.809 38.863C165.65 38.9582 165.419 38.8942 165.324 38.7354ZM167.729 37.3071C167.634 37.1483 167.449 37.1062 167.313 37.2009L165.476 38.2958C165.34 38.3905 165.298 38.5752 165.369 38.7115C165.465 38.8702 165.649 38.9123 165.785 38.8176L167.623 37.7227C167.759 37.6509 167.801 37.4663 167.729 37.3071Z" fill="white"/>
<path d="M163.873 41.7972C163.8 41.615 163.865 41.4299 164.048 41.3572L168.44 39.4279C168.599 39.3557 168.808 39.4432 168.88 39.6025C168.953 39.7847 168.888 39.9698 168.706 40.0425L164.313 41.9717C164.154 42.044 163.946 41.9794 163.873 41.7972Z" fill="#F3F3F3"/>
<path d="M163.849 41.8197C163.776 41.6375 163.84 41.4294 164.022 41.3337L168.415 39.4045C168.597 39.3318 168.805 39.4193 168.878 39.6015C168.951 39.7838 168.886 39.9918 168.705 40.0875L164.312 42.0167C164.13 42.0894 163.921 42.0019 163.849 41.8197ZM168.833 39.6255C168.76 39.4662 168.575 39.4012 168.439 39.45L164.046 41.3792C163.887 41.4514 163.822 41.6365 163.894 41.7958C163.966 41.955 164.151 42.0201 164.288 41.9713L168.681 40.0421C168.84 39.9698 168.905 39.7847 168.833 39.6255Z" fill="white"/>
<path d="M167.13 42.8762C167.058 42.6939 167.146 42.5084 167.328 42.4357L169.334 41.7277C169.493 41.6554 169.702 41.7659 169.752 41.9257C169.824 42.1079 169.736 42.2935 169.554 42.3662L167.548 43.0742C167.389 43.1464 167.203 43.0584 167.13 42.8762Z" fill="#F3F3F3"/>
<path d="M167.109 42.8996C167.036 42.7174 167.124 42.5089 167.329 42.4357L169.335 41.7277C169.518 41.655 169.727 41.7654 169.799 41.9477C169.872 42.1299 169.785 42.3384 169.579 42.4116L167.573 43.1196C167.39 43.1694 167.182 43.0818 167.109 42.8996ZM169.754 41.9716C169.705 41.8118 169.519 41.7238 169.359 41.7731L167.353 42.4811C167.193 42.5304 167.128 42.7155 167.177 42.8752C167.227 43.035 167.412 43.123 167.572 43.0737L169.578 42.3657C169.738 42.2935 169.803 42.1313 169.754 41.9716Z" fill="white"/>
<path d="M165.124 45.6531C165.074 45.4704 165.185 45.2844 165.368 45.2576L170.055 44.2409C170.238 44.1912 170.401 44.3256 170.451 44.5083C170.501 44.691 170.39 44.877 170.207 44.9038L165.52 45.9205C165.336 45.9473 165.15 45.8363 165.124 45.6531Z" fill="#F3F3F3"/>
<path d="M165.076 45.6526C165.026 45.4469 165.16 45.2604 165.343 45.2107L170.03 44.194C170.213 44.1443 170.399 44.2782 170.449 44.4838C170.5 44.6895 170.366 44.876 170.183 44.9258L165.496 45.9424C165.313 45.9922 165.127 45.8583 165.076 45.6526ZM170.404 44.5077C170.378 44.3475 170.215 44.2361 170.054 44.2624L165.367 45.2791C165.207 45.3054 165.096 45.4914 165.145 45.6512C165.172 45.8114 165.335 45.9228 165.495 45.8965L170.182 44.8799C170.342 44.8306 170.453 44.6675 170.404 44.5077Z" fill="white"/>
<path d="M168.098 47.3587C168.071 47.1756 168.183 47.0124 168.366 46.9857L170.473 46.689C170.656 46.6622 170.819 46.7966 170.846 46.9798C170.873 47.1629 170.762 47.326 170.578 47.3528L168.472 47.6495C168.311 47.6758 168.125 47.5419 168.098 47.3587Z" fill="#F3F3F3"/>
<path d="M168.075 47.3582C168.048 47.1521 168.182 46.9656 168.365 46.9388L170.472 46.6421C170.655 46.6153 170.841 46.7492 170.869 46.9554C170.896 47.1615 170.762 47.348 170.579 47.3748L168.472 47.6715C168.289 47.6983 168.102 47.5644 168.075 47.3582ZM170.846 46.9788C170.82 46.8186 170.656 46.6842 170.496 46.7105L168.389 47.0072C168.229 47.0335 168.118 47.1966 168.144 47.3568C168.17 47.517 168.334 47.6514 168.494 47.6251L170.601 47.3284C170.761 47.3021 170.873 47.139 170.846 46.9788Z" fill="white"/>
<path d="M165.572 49.6389C165.568 49.4552 165.702 49.2916 165.886 49.2878L170.684 49.1876C170.868 49.1837 171.009 49.3415 171.013 49.5252C171.016 49.7089 170.882 49.8724 170.698 49.8763L165.9 49.9765C165.717 49.9804 165.575 49.8226 165.572 49.6389Z" fill="#F3F3F3"/>
<path d="M165.551 49.6389C165.546 49.4323 165.704 49.2682 165.887 49.2644L170.686 49.1641C170.869 49.1603 171.033 49.3176 171.038 49.5243C171.042 49.7309 170.885 49.8949 170.701 49.8988L165.903 49.999C165.719 50.0029 165.555 49.8455 165.551 49.6389ZM170.992 49.5482C170.989 49.3875 170.848 49.2296 170.687 49.233L165.889 49.3333C165.728 49.3366 165.593 49.4772 165.597 49.6609C165.6 49.8216 165.742 49.9794 165.902 49.9761L170.7 49.8758C170.861 49.8495 170.995 49.7089 170.992 49.5482Z" fill="white"/>
<path d="M168.171 51.9048C168.19 51.7207 168.325 51.58 168.508 51.5762L170.647 51.6923C170.831 51.7114 170.972 51.8693 170.953 52.0534C170.934 52.2375 170.799 52.3782 170.615 52.382L168.477 52.2659C168.316 52.2463 168.175 52.0885 168.171 51.9048Z" fill="#F3F3F3"/>
<path d="M168.146 51.9047C168.165 51.6976 168.322 51.5565 168.506 51.5527L170.644 51.6688C170.829 51.6879 170.993 51.8452 170.974 52.0523C170.955 52.2594 170.798 52.4005 170.614 52.4044L168.475 52.2883C168.291 52.2692 168.15 52.0884 168.146 51.9047ZM170.951 52.0528C170.971 51.8916 170.83 51.7338 170.669 51.7372L168.53 51.6211C168.37 51.6244 168.234 51.7421 168.215 51.9262C168.196 52.0874 168.337 52.2452 168.497 52.2419L170.636 52.358C170.797 52.3546 170.931 52.214 170.951 52.0528Z" fill="white"/>
<path d="M165.245 53.6431C165.287 53.4585 165.445 53.3403 165.63 53.3595L170.356 54.2024C170.54 54.2445 170.658 54.4028 170.616 54.5874C170.574 54.772 170.416 54.8902 170.232 54.871L165.506 54.0281C165.345 54.0085 165.226 53.8272 165.245 53.6431Z" fill="#F3F3F3"/>
<path d="M165.22 53.6431C165.262 53.4355 165.443 53.3169 165.627 53.336L170.353 54.1789C170.538 54.221 170.679 54.4018 170.638 54.6094C170.596 54.817 170.415 54.9356 170.231 54.9165L165.505 54.0735C165.32 54.0314 165.202 53.8502 165.22 53.6431ZM170.592 54.6103C170.611 54.4491 170.516 54.2904 170.355 54.2478L165.629 53.4049C165.467 53.3853 165.309 53.4805 165.267 53.6651C165.247 53.8263 165.342 53.9851 165.504 54.0276L170.23 54.8705C170.414 54.8897 170.549 54.772 170.592 54.6103Z" fill="white"/>
<path d="M167.367 56.3536C167.409 56.169 167.59 56.0504 167.775 56.0924L169.853 56.6232C170.038 56.6653 170.133 56.847 170.091 57.0317C170.049 57.2163 169.868 57.3349 169.683 57.2928L167.605 56.7621C167.42 56.72 167.325 56.5382 167.367 56.3536Z" fill="#F3F3F3"/>
<path d="M167.342 56.3539C167.384 56.1692 167.588 56.0272 167.773 56.0922L169.851 56.623C170.036 56.6651 170.155 56.8693 170.113 57.0539C170.071 57.2385 169.867 57.3806 169.682 57.3155L167.604 56.7848C167.419 56.7427 167.3 56.5614 167.342 56.3539ZM170.044 57.0553C170.086 56.8937 169.991 56.7119 169.829 56.6694L167.751 56.1386C167.589 56.096 167.43 56.1912 167.388 56.3759C167.346 56.5375 167.441 56.7193 167.603 56.7618L169.681 57.2926C169.842 57.3122 170.001 57.217 170.044 57.0553Z" fill="white"/>
<path d="M164.152 57.523C164.217 57.3379 164.422 57.2647 164.584 57.3302L169.053 59.0742C169.215 59.1397 169.312 59.3444 169.246 59.5066C169.181 59.6917 168.976 59.7649 168.814 59.6994L164.344 57.9553C164.159 57.8903 164.086 57.6851 164.152 57.523Z" fill="#F3F3F3"/>
<path d="M164.129 57.5021C164.194 57.317 164.398 57.2209 164.583 57.2859L169.053 59.0299C169.238 59.095 169.311 59.3001 169.246 59.5082C169.181 59.6933 168.977 59.7895 168.792 59.7244L164.322 57.9804C164.137 57.8924 164.064 57.6872 164.129 57.5021ZM169.2 59.4862C169.266 59.3241 169.193 59.1418 169.031 59.0763L164.561 57.3323C164.399 57.2668 164.241 57.362 164.175 57.5241C164.11 57.6862 164.182 57.8685 164.344 57.934L168.814 59.678C168.975 59.7206 169.158 59.6479 169.2 59.4862Z" fill="white"/>
<path d="M165.713 60.5922C165.801 60.4296 165.984 60.3569 166.146 60.4224L168.071 61.3468C168.234 61.4123 168.307 61.6175 168.219 61.8031C168.13 61.9657 167.948 62.0384 167.786 61.9729L165.86 61.0485C165.698 60.96 165.625 60.7548 165.713 60.5922Z" fill="#F3F3F3"/>
<path d="M165.687 60.5692C165.775 60.3836 165.98 60.3104 166.166 60.3984L168.092 61.3228C168.277 61.4108 168.35 61.616 168.262 61.8016C168.174 61.9872 167.969 62.0604 167.784 61.9724L165.858 61.048C165.673 60.9829 165.599 60.7548 165.687 60.5692ZM168.193 61.7801C168.259 61.6179 168.209 61.4352 168.047 61.3697L166.121 60.4453C165.982 60.3793 165.8 60.452 165.711 60.5917C165.645 60.7538 165.695 60.9365 165.857 61.002L167.783 61.9265C167.945 61.992 168.128 61.9422 168.193 61.7801Z" fill="white"/>
<path d="M162.346 61.0989C162.458 60.9358 162.64 60.886 162.804 60.9975L166.854 63.5771C167.016 63.6656 167.044 63.8717 166.955 64.0344C166.844 64.1975 166.661 64.2472 166.498 64.1358L162.448 61.5561C162.285 61.4447 162.234 61.239 162.346 61.0989Z" fill="#F3F3F3"/>
<path d="M162.32 61.0766C162.431 60.9135 162.66 60.8628 162.822 60.9513L166.873 63.5309C167.036 63.6424 167.086 63.848 166.975 64.0341C166.864 64.1972 166.635 64.2479 166.472 64.1594L162.422 61.5798C162.236 61.4688 162.208 61.2397 162.32 61.0766ZM166.906 64.0126C166.995 63.8729 166.967 63.6668 166.828 63.5778L162.777 60.9982C162.638 60.9092 162.455 60.959 162.366 61.0986C162.277 61.2383 162.304 61.4444 162.444 61.5334L166.494 64.113C166.634 64.202 166.817 64.1522 166.906 64.0126Z" fill="white"/>
<path d="M163.266 64.4092C163.378 64.2691 163.583 64.2189 163.723 64.3308L165.427 65.6043C165.567 65.7163 165.594 65.9224 165.482 66.0625C165.37 66.2027 165.165 66.2529 165.025 66.141L163.321 64.8674C163.181 64.7555 163.154 64.5494 163.266 64.4092Z" fill="#F3F3F3"/>
<path d="M163.241 64.3868C163.352 64.2237 163.581 64.196 163.744 64.3074L165.448 65.5809C165.611 65.6923 165.638 65.9214 165.527 66.0845C165.416 66.2477 165.186 66.2754 165.023 66.164L163.32 64.8905C163.157 64.7791 163.129 64.5499 163.241 64.3868ZM165.481 66.0625C165.593 65.9224 165.566 65.7393 165.426 65.6274L163.722 64.3538C163.583 64.2649 163.399 64.2916 163.288 64.4317C163.176 64.5719 163.202 64.7551 163.343 64.8671L165.046 66.1405C165.186 66.2295 165.369 66.2027 165.481 66.0625Z" fill="white"/>
<path d="M159.838 64.2509C159.973 64.1103 160.18 64.106 160.297 64.2413L163.766 67.5451C163.906 67.68 163.888 67.8871 163.775 68.0043C163.64 68.1449 163.434 68.1492 163.316 68.0139L159.848 64.7101C159.731 64.5977 159.726 64.3681 159.838 64.2509Z" fill="#F3F3F3"/>
<path d="M159.838 64.2278C159.972 64.0872 160.202 64.0824 160.343 64.2173L163.811 67.5211C163.951 67.6559 163.956 67.8855 163.821 68.0261C163.687 68.1668 163.457 68.1716 163.316 68.0367L159.848 64.7329C159.685 64.5985 159.68 64.3689 159.838 64.2278ZM163.775 67.9812C163.887 67.864 163.883 67.6574 163.765 67.545L160.297 64.2412C160.18 64.1288 159.973 64.1331 159.861 64.2503C159.749 64.3675 159.753 64.5741 159.87 64.6865L163.338 67.9903C163.456 68.1257 163.64 68.1218 163.775 67.9812Z" fill="white"/>
<path d="M160.115 67.6682C160.251 67.5506 160.457 67.5463 160.575 67.6816L162.009 69.2594C162.127 69.3947 162.108 69.6018 161.973 69.7195C161.837 69.8372 161.631 69.8416 161.513 69.7062L160.079 68.1284C159.962 68.016 159.98 67.8089 160.115 67.6682Z" fill="#F3F3F3"/>
<path d="M160.096 67.6679C160.254 67.5268 160.461 67.5455 160.601 67.6803L162.035 69.2581C162.176 69.393 162.158 69.623 162 69.7641C161.842 69.9052 161.635 69.8866 161.494 69.7517L160.06 68.1739C159.942 68.0156 159.937 67.7861 160.096 67.6679ZM161.976 69.7187C162.111 69.601 162.108 69.4174 162.013 69.2815L160.579 67.7038C160.462 67.5914 160.277 67.5722 160.142 67.6899C160.007 67.8076 160.011 67.9912 160.105 68.1271L161.539 69.7049C161.657 69.8402 161.841 69.8364 161.976 69.7187Z" fill="white"/>
<path d="M156.791 66.8648C156.95 66.7466 157.157 66.7882 157.252 66.947L159.998 70.8631C160.094 71.0218 160.052 71.2294 159.916 71.3241C159.758 71.4423 159.55 71.4007 159.455 71.2419L156.709 67.3258C156.614 67.167 156.656 66.9595 156.791 66.8648Z" fill="#F3F3F3"/>
<path d="M156.792 66.8415C156.95 66.7234 157.181 66.7645 157.299 66.9228L160.045 70.8388C160.163 70.9972 160.122 71.2277 159.941 71.3463C159.783 71.4645 159.552 71.4233 159.434 71.265L156.688 67.349C156.569 67.1677 156.611 66.9601 156.792 66.8415ZM159.917 71.3009C160.053 71.2062 160.095 71.0215 160 70.8857L157.254 66.9697C157.159 66.8338 156.975 66.8147 156.816 66.9099C156.681 67.0046 156.638 67.1892 156.733 67.3251L159.479 71.2411C159.574 71.354 159.781 71.3956 159.917 71.3009Z" fill="white"/>
<path d="M156.381 70.2732C156.539 70.178 156.747 70.2196 156.842 70.3784L157.937 72.2159C158.032 72.3747 157.968 72.5827 157.809 72.6779C157.65 72.7731 157.443 72.7315 157.347 72.5727L156.253 70.7352C156.18 70.5759 156.222 70.3684 156.381 70.2732Z" fill="#F3F3F3"/>
<path d="M156.382 70.2501C156.564 70.1544 156.771 70.196 156.866 70.3548L157.961 72.1923C158.057 72.3511 158.015 72.5816 157.834 72.6773C157.652 72.773 157.444 72.7314 157.349 72.5726L156.254 70.7351C156.159 70.5763 156.201 70.3687 156.382 70.2501ZM157.81 72.6548C157.946 72.5601 158.011 72.375 157.916 72.2392L156.821 70.4017C156.727 70.2659 156.542 70.2238 156.406 70.2955C156.27 70.3902 156.205 70.5753 156.3 70.7112L157.395 72.5487C157.466 72.685 157.674 72.7495 157.81 72.6548Z" fill="white"/>
<path d="M153.297 68.8207C153.479 68.748 153.665 68.813 153.737 68.9723L155.689 73.3643C155.761 73.5236 155.674 73.7321 155.514 73.8043C155.355 73.8766 155.147 73.812 155.075 73.6527L153.123 69.2607C153.05 69.1015 153.138 68.8929 153.297 68.8207Z" fill="#F3F3F3"/>
<path d="M153.294 68.7988C153.477 68.7261 153.685 68.7907 153.78 68.9724L155.733 73.3644C155.805 73.5467 155.718 73.7552 155.536 73.8279C155.353 73.9006 155.145 73.8361 155.05 73.6543L153.097 69.2623C153.025 69.1031 153.113 68.8945 153.294 68.7988ZM155.489 73.783C155.648 73.7107 155.713 73.5256 155.641 73.3893L153.689 68.9973C153.617 68.838 153.432 68.773 153.272 68.8452C153.113 68.9175 153.048 69.1026 153.12 69.2389L155.072 73.6309C155.167 73.7897 155.329 73.8552 155.489 73.783Z" fill="white"/>
<path d="M152.238 72.1056C152.42 72.0329 152.606 72.1209 152.678 72.3031L153.386 74.3095C153.459 74.4687 153.348 74.6778 153.188 74.727C153.006 74.7997 152.82 74.7117 152.748 74.5295L152.04 72.5231C151.968 72.3639 152.056 72.1783 152.238 72.1056Z" fill="#F3F3F3"/>
<path d="M152.214 72.0822C152.397 72.0095 152.605 72.097 152.678 72.2792L153.386 74.2856C153.459 74.4678 153.348 74.6768 153.166 74.7495C152.984 74.8222 152.775 74.7347 152.702 74.5525L151.994 72.5461C151.945 72.3634 152.032 72.1549 152.214 72.0822ZM153.165 74.7036C153.325 74.6543 153.413 74.4688 153.363 74.309L152.655 72.3026C152.606 72.1429 152.421 72.0779 152.261 72.1271C152.102 72.1764 152.014 72.362 152.063 72.5217L152.771 74.5281C152.82 74.6879 153.006 74.7758 153.165 74.7036Z" fill="white"/>
<path d="M149.488 70.0725C149.67 70.0227 149.856 70.1337 149.883 70.3169L150.946 75.0031C150.995 75.1858 150.861 75.3494 150.678 75.3991C150.496 75.4489 150.31 75.3379 150.283 75.1547L149.22 70.4685C149.194 70.3083 149.305 70.1222 149.488 70.0725Z" fill="#F3F3F3"/>
<path d="M149.487 70.0497C149.693 69.9995 149.879 70.1334 149.929 70.3161L150.991 75.0023C151.041 75.185 150.908 75.3945 150.725 75.4213C150.519 75.4715 150.332 75.3376 150.283 75.1549L149.22 70.4687C149.17 70.286 149.281 70.1 149.487 70.0497ZM150.678 75.3764C150.838 75.35 150.949 75.1869 150.923 75.0038L149.86 70.3175C149.834 70.1573 149.648 70.0464 149.488 70.0956C149.328 70.122 149.216 70.2851 149.243 70.4682L150.306 75.1544C150.355 75.3142 150.517 75.4027 150.678 75.3764Z" fill="white"/>
<path d="M147.803 73.0918C147.986 73.065 148.149 73.1766 148.199 73.3593L148.519 75.4656C148.545 75.6488 148.411 75.8123 148.228 75.8391C148.045 75.8659 147.882 75.7546 147.832 75.5719L147.512 73.4654C147.485 73.2822 147.62 73.1186 147.803 73.0918Z" fill="#F3F3F3"/>
<path d="M147.804 73.0699C148.011 73.0426 148.197 73.1765 148.224 73.3597L148.544 75.466C148.57 75.6492 148.436 75.8358 148.23 75.863C148.024 75.8903 147.838 75.7564 147.811 75.5732L147.491 73.4669C147.464 73.2837 147.598 73.0971 147.804 73.0699ZM148.206 75.8176C148.367 75.7913 148.501 75.6277 148.475 75.4675L148.155 73.3611C148.129 73.2009 147.966 73.0895 147.805 73.1158C147.645 73.1421 147.511 73.3057 147.537 73.4659L147.857 75.5723C147.883 75.7325 148.046 75.8439 148.206 75.8176Z" fill="white"/>
<path d="M145.385 70.5704C145.569 70.5666 145.733 70.701 145.736 70.8846L145.837 75.6828C145.841 75.8665 145.683 76.0076 145.499 76.0114C145.315 76.0153 145.152 75.8809 145.148 75.6972L145.048 70.899C145.067 70.7149 145.202 70.5743 145.385 70.5704Z" fill="#F3F3F3"/>
<path d="M145.387 70.5489C145.593 70.5446 145.758 70.7019 145.761 70.8856L145.862 75.6838C145.865 75.8674 145.708 76.0315 145.502 76.0358C145.295 76.0401 145.131 75.8828 145.127 75.6991L145.027 70.9009C145.023 70.7173 145.203 70.5527 145.387 70.5489ZM145.501 75.9899C145.661 75.9865 145.819 75.8454 145.816 75.6847L145.715 70.8865C145.712 70.7258 145.571 70.591 145.388 70.5948C145.227 70.5982 145.069 70.7393 145.073 70.9L145.173 75.6982C145.199 75.8584 145.34 75.9932 145.501 75.9899Z" fill="white"/>
<path d="M143.143 73.1892C143.327 73.2083 143.468 73.3432 143.472 73.5269L143.356 75.6653C143.337 75.8494 143.179 75.9905 142.995 75.9714C142.811 75.9523 142.67 75.8174 142.666 75.6338L142.782 73.4953C142.801 73.3112 142.959 73.1701 143.143 73.1892Z" fill="#F3F3F3"/>
<path d="M143.145 73.1677C143.352 73.1864 143.493 73.3442 143.497 73.5279L143.381 75.6663C143.362 75.8504 143.204 76.0145 142.997 75.9959C142.79 75.9772 142.649 75.8194 142.645 75.6357L142.761 73.4973C142.78 73.2902 142.938 73.1491 143.145 73.1677ZM142.996 75.9499C143.157 75.9466 143.315 75.8284 143.312 75.6677L143.428 73.5293C143.425 73.3686 143.307 73.2333 143.123 73.2141C142.962 73.2175 142.804 73.3356 142.807 73.4963L142.691 75.6348C142.694 75.7955 142.835 75.9303 142.996 75.9499Z" fill="white"/>
<path d="M141.358 70.2423C141.543 70.2844 141.661 70.4427 141.642 70.6269L140.799 75.3529C140.757 75.5375 140.598 75.6557 140.414 75.6136C140.229 75.5715 140.111 75.4132 140.13 75.2291L140.973 70.5029C140.993 70.3418 141.174 70.2232 141.358 70.2423Z" fill="#F3F3F3"/>
<path d="M141.357 70.2187C141.565 70.2603 141.683 70.4415 141.664 70.6257L140.821 75.3517C140.779 75.5363 140.598 75.6779 140.391 75.6363C140.183 75.5947 140.064 75.4135 140.084 75.2293L140.927 70.5033C140.969 70.3187 141.15 70.2 141.357 70.2187ZM140.39 75.5904C140.551 75.61 140.71 75.5148 140.752 75.3531L141.595 70.6271C141.615 70.4659 141.52 70.3072 141.335 70.2651C141.174 70.2455 141.015 70.3407 140.972 70.5023L140.13 75.2283C140.11 75.4125 140.228 75.5478 140.39 75.5904Z" fill="white"/>
<path d="M138.648 72.3653C138.833 72.4073 138.951 72.5886 138.909 72.7732L138.378 74.8514C138.336 75.036 138.155 75.1317 137.97 75.0896C137.785 75.0476 137.667 74.8663 137.709 74.6817L138.24 72.6035C138.282 72.4189 138.463 72.3232 138.648 72.3653Z" fill="#F3F3F3"/>
<path d="M138.648 72.3423C138.832 72.3844 138.974 72.5882 138.909 72.7733L138.378 74.8514C138.336 75.0361 138.132 75.1552 137.947 75.1131C137.763 75.071 137.621 74.8673 137.686 74.6822L138.217 72.604C138.259 72.4194 138.44 72.3007 138.648 72.3423ZM137.946 75.0442C138.108 75.0868 138.289 74.9911 138.332 74.8295L138.863 72.7513C138.905 72.5896 138.81 72.4308 138.626 72.3887C138.464 72.3462 138.282 72.4418 138.24 72.6035L137.709 74.6817C137.689 74.8429 137.784 75.0017 137.946 75.0442Z" fill="white"/>
<path d="M137.455 69.1528C137.64 69.2178 137.713 69.423 137.648 69.5851L135.904 74.0544C135.838 74.2165 135.633 74.3127 135.471 74.2242C135.308 74.1357 135.213 73.954 135.278 73.7918L137.022 69.3226C137.088 69.1604 137.292 69.0643 137.455 69.1528Z" fill="#F3F3F3"/>
<path d="M137.454 69.1287C137.639 69.1937 137.735 69.3984 137.67 69.5835L135.926 74.0528C135.861 74.2379 135.656 74.3111 135.448 74.2465C135.262 74.1815 135.166 73.9768 135.231 73.7917L136.975 69.3224C137.063 69.1369 137.268 69.0407 137.454 69.1287ZM135.47 74.2001C135.632 74.2656 135.814 74.1929 135.879 74.0308L137.624 69.5615C137.689 69.3994 137.594 69.2406 137.432 69.1751C137.27 69.1096 137.087 69.1823 137.022 69.3444L135.278 73.8137C135.235 73.9524 135.307 74.1346 135.47 74.2001Z" fill="white"/>
<path d="M134.388 70.6862C134.551 70.7747 134.624 70.9569 134.558 71.1191L133.634 73.0447C133.545 73.2073 133.363 73.28 133.177 73.192C133.015 73.1036 132.942 72.9213 133.008 72.7592L133.932 70.8336C134.021 70.6709 134.203 70.5982 134.388 70.6862Z" fill="#F3F3F3"/>
<path d="M134.384 70.6621C134.57 70.75 134.643 70.9552 134.555 71.1408L133.631 73.0665C133.543 73.252 133.337 73.3252 133.152 73.2372C132.966 73.1492 132.893 72.9441 132.981 72.7585L133.905 70.8328C133.993 70.6473 134.199 70.5741 134.384 70.6621ZM133.174 73.1908C133.336 73.2564 133.519 73.2066 133.584 73.0445L134.509 71.1188C134.575 70.9796 134.502 70.7974 134.362 70.7084C134.2 70.6429 134.017 70.6927 133.952 70.8548L133.027 72.7805C132.961 72.9197 133.034 73.1019 133.174 73.1908Z" fill="white"/>
<path d="M133.857 67.2981C134.02 67.4095 134.071 67.6152 133.959 67.7553L131.379 71.7827C131.29 71.9453 131.084 71.9726 130.921 71.8841C130.758 71.7727 130.708 71.567 130.82 71.4268L133.4 67.3995C133.489 67.2369 133.694 67.1866 133.857 67.2981Z" fill="#F3F3F3"/>
<path d="M133.857 67.2745C134.02 67.3859 134.071 67.6146 133.982 67.7772L131.402 71.8045C131.291 71.9676 131.085 72.0179 130.899 71.9069C130.736 71.7955 130.685 71.5669 130.774 71.4042L133.354 67.3769C133.465 67.2138 133.694 67.1631 133.857 67.2745ZM130.921 71.8605C131.061 71.9495 131.267 71.9222 131.356 71.7825L133.936 67.7552C134.025 67.6155 133.975 67.4328 133.835 67.3439C133.696 67.2549 133.49 67.2822 133.401 67.4218L130.82 71.4262C130.731 71.5659 130.781 71.7716 130.921 71.8605Z" fill="white"/>
<path d="M130.523 68.2177C130.663 68.3296 130.714 68.5353 130.602 68.6755L129.305 70.3792C129.193 70.5193 128.987 70.5466 128.847 70.4347C128.707 70.3228 128.657 70.1171 128.769 69.977L130.065 68.2732C130.177 68.1331 130.383 68.1058 130.523 68.2177Z" fill="#F3F3F3"/>
<path d="M130.545 68.1949C130.708 68.3064 130.736 68.5355 130.624 68.6986L129.328 70.4023C129.216 70.5654 128.987 70.5932 128.824 70.4588C128.661 70.3473 128.633 70.1182 128.744 69.9551L130.041 68.2514C130.152 68.0883 130.381 68.0605 130.545 68.1949ZM128.869 70.4119C129.009 70.5238 129.192 70.497 129.304 70.3569L130.601 68.6531C130.689 68.5135 130.663 68.3303 130.523 68.2184C130.382 68.1065 130.199 68.1333 130.087 68.2734L128.791 69.9771C128.702 70.1168 128.729 70.3229 128.869 70.4119Z" fill="white"/>
<path d="M130.681 64.7703C130.821 64.9051 130.825 65.1118 130.69 65.2294L127.363 68.6752C127.228 68.8158 127.021 68.7972 126.904 68.6848C126.787 68.5724 126.759 68.3433 126.894 68.2256L130.198 64.7803C130.333 64.6397 130.54 64.6354 130.681 64.7703Z" fill="#F3F3F3"/>
<path d="M130.704 64.7446C130.844 64.8795 130.849 65.109 130.714 65.2497L127.387 68.6955C127.252 68.8361 127.022 68.8409 126.882 68.706C126.741 68.5711 126.736 68.3416 126.871 68.2009L130.199 64.7551C130.333 64.6145 130.563 64.6097 130.704 64.7446ZM126.904 68.6826C127.022 68.795 127.228 68.7906 127.341 68.6735L130.668 65.2277C130.78 65.1105 130.776 64.9039 130.659 64.7915C130.541 64.6791 130.335 64.6834 130.222 64.8006L126.895 68.2464C126.783 68.3636 126.787 68.5472 126.904 68.6826Z" fill="white"/>
<path d="M127.241 65.0243C127.359 65.1597 127.363 65.3663 127.228 65.4839L125.626 66.8955C125.491 67.0131 125.284 66.9945 125.166 66.8592C125.049 66.7238 125.044 66.5172 125.18 66.3995L126.781 64.988C126.916 64.8703 127.123 64.889 127.241 65.0243Z" fill="#F3F3F3"/>
<path d="M127.263 65.0015C127.404 65.1594 127.386 65.3894 127.251 65.5071L125.65 66.9186C125.515 67.0592 125.285 67.0411 125.144 66.8833C125.002 66.7254 125.021 66.4954 125.156 66.3777L126.757 64.9662C126.892 64.8256 127.122 64.8437 127.263 65.0015ZM125.189 66.8593C125.307 66.9947 125.49 66.9909 125.626 66.8961L127.227 65.4846C127.34 65.3674 127.359 65.1833 127.241 65.0479C127.124 64.9126 126.94 64.9164 126.804 65.0111L125.203 66.4227C125.067 66.5403 125.071 66.724 125.189 66.8593Z" fill="white"/>
<path d="M128.089 61.6999C128.207 61.8583 128.165 62.0658 128.007 62.161L124.068 64.9076C123.909 65.0028 123.701 64.9612 123.607 64.8254C123.488 64.6671 123.53 64.4595 123.689 64.3643L127.628 61.6177C127.764 61.523 127.971 61.5646 128.089 61.6999Z" fill="#F3F3F3"/>
<path d="M128.11 61.6983C128.228 61.8566 128.187 62.0872 128.029 62.2053L124.09 64.9519C123.932 65.0701 123.701 65.0289 123.582 64.8477C123.464 64.6894 123.505 64.4588 123.664 64.3407L127.603 61.5941C127.761 61.476 127.992 61.5171 128.11 61.6983ZM123.627 64.8008C123.722 64.9366 123.907 64.9787 124.043 64.884L127.982 62.1374C128.117 62.0427 128.159 61.8581 128.041 61.6998C127.947 61.564 127.762 61.5219 127.626 61.6166L123.687 64.3632C123.552 64.4808 123.533 64.665 123.627 64.8008Z" fill="white"/>
<path d="M124.66 61.2898C124.755 61.4485 124.713 61.6561 124.555 61.7513L122.717 62.8462C122.558 62.9414 122.35 62.8769 122.255 62.7181C122.16 62.5593 122.202 62.3517 122.36 62.2565L124.198 61.1616C124.357 61.0664 124.565 61.131 124.66 61.2898Z" fill="#F3F3F3"/>
<path d="M124.683 61.2659C124.778 61.4477 124.737 61.6553 124.578 61.7505L122.741 62.8454C122.582 62.9406 122.351 62.8765 122.256 62.7177C122.16 62.536 122.202 62.3284 122.36 62.2332L124.198 61.1383C124.357 61.0431 124.588 61.1072 124.683 61.2659ZM122.278 62.6943C122.373 62.853 122.558 62.8951 122.694 62.8004L124.531 61.7055C124.667 61.6108 124.709 61.4262 124.637 61.2899C124.542 61.1311 124.358 61.089 124.222 61.1837L122.384 62.2786C122.248 62.3504 122.206 62.535 122.278 62.6943Z" fill="white"/>
<path d="M126.132 58.2035C126.205 58.3857 126.14 58.5708 125.958 58.6435L121.565 60.5727C121.406 60.645 121.197 60.5574 121.125 60.3982C121.052 60.216 121.117 60.0309 121.3 59.9581L125.692 58.0289C125.851 57.9567 126.059 58.0213 126.132 58.2035Z" fill="#F3F3F3"/>
<path d="M126.155 58.1797C126.228 58.3619 126.164 58.57 125.982 58.6656L121.589 60.5948C121.407 60.6675 121.199 60.58 121.126 60.3978C121.053 60.2156 121.118 60.0075 121.299 59.9118L125.692 57.9826C125.874 57.9099 126.083 57.9974 126.155 58.1797ZM121.171 60.3739C121.244 60.5331 121.429 60.5982 121.565 60.5494L125.958 58.6202C126.117 58.548 126.182 58.3629 126.11 58.2036C126.038 58.0443 125.853 57.9793 125.716 58.0281L121.323 59.9573C121.164 60.0295 121.099 60.2146 121.171 60.3739Z" fill="white"/>
<path d="M122.873 57.1237C122.946 57.3059 122.858 57.4915 122.675 57.5642L120.669 58.2722C120.51 58.3444 120.301 58.2339 120.251 58.0742C120.179 57.892 120.267 57.7064 120.449 57.6337L122.455 56.9257C122.615 56.8534 122.8 56.9414 122.873 57.1237Z" fill="#F3F3F3"/>
<path d="M122.895 57.0989C122.968 57.2812 122.88 57.4897 122.675 57.5629L120.669 58.2709C120.486 58.3436 120.277 58.2331 120.205 58.0509C120.132 57.8687 120.219 57.6601 120.425 57.5869L122.431 56.879C122.614 56.8292 122.822 56.9167 122.895 57.0989ZM120.25 58.027C120.299 58.1867 120.485 58.2747 120.645 58.2254L122.651 57.5175C122.811 57.4682 122.876 57.2831 122.826 57.1233C122.777 56.9636 122.592 56.8756 122.432 56.9249L120.426 57.6329C120.266 57.7051 120.201 57.8672 120.25 58.027Z" fill="white"/>
<path d="M124.883 54.3475C124.932 54.5302 124.821 54.7162 124.638 54.743L119.951 55.7597C119.768 55.8094 119.605 55.675 119.555 55.4923C119.505 55.3096 119.616 55.1236 119.799 55.0968L124.487 54.0801C124.67 54.0533 124.856 54.1643 124.883 54.3475Z" fill="#F3F3F3"/>
<path d="M124.928 54.3471C124.978 54.5528 124.844 54.7393 124.662 54.7891L119.974 55.8057C119.792 55.8555 119.605 55.7216 119.555 55.5159C119.505 55.3103 119.639 55.1237 119.821 55.074L124.509 54.0573C124.691 54.0076 124.878 54.1415 124.928 54.3471ZM119.6 55.492C119.627 55.6522 119.79 55.7637 119.95 55.7373L124.637 54.7207C124.797 54.6944 124.908 54.5083 124.859 54.3486C124.833 54.1883 124.67 54.0769 124.509 54.1032L119.822 55.1199C119.663 55.1692 119.551 55.3323 119.6 55.492Z" fill="white"/>
<path d="M121.909 52.6418C121.935 52.825 121.824 52.9881 121.641 53.0149L119.534 53.3115C119.351 53.3383 119.187 53.2039 119.16 53.0208C119.134 52.8376 119.245 52.6745 119.428 52.6477L121.535 52.351C121.695 52.3247 121.882 52.4586 121.909 52.6418Z" fill="#F3F3F3"/>
<path d="M121.929 52.6408C121.957 52.8469 121.823 53.0335 121.639 53.0603L119.533 53.3569C119.349 53.3837 119.163 53.2498 119.136 53.0437C119.108 52.8376 119.242 52.651 119.425 52.6242L121.532 52.3276C121.715 52.3008 121.902 52.4347 121.929 52.6408ZM119.158 53.0203C119.184 53.1805 119.348 53.3149 119.508 53.2886L121.615 52.9919C121.775 52.9656 121.887 52.8025 121.86 52.6422C121.834 52.482 121.67 52.3476 121.51 52.3739L119.403 52.6706C119.243 52.6969 119.132 52.86 119.158 53.0203Z" fill="white"/>
<path d="M124.429 50.3612C124.433 50.5448 124.298 50.7084 124.114 50.7122L119.316 50.8125C119.133 50.8163 118.992 50.6585 118.988 50.4748C118.984 50.2912 119.118 50.1276 119.302 50.1238L124.1 50.0235C124.284 50.0197 124.425 50.1775 124.429 50.3612Z" fill="#F3F3F3"/>
<path d="M124.456 50.3602C124.46 50.5668 124.302 50.7309 124.119 50.7347L119.321 50.835C119.137 50.8388 118.973 50.6815 118.969 50.4748C118.964 50.2682 119.122 50.1042 119.305 50.1003L124.103 50.0001C124.287 49.9962 124.451 50.1536 124.456 50.3602ZM119.014 50.4509C119.017 50.6116 119.159 50.7695 119.319 50.7661L124.117 50.6658C124.278 50.6625 124.413 50.5219 124.409 50.3382C124.406 50.1775 124.265 50.0197 124.104 50.023L119.306 50.1233C119.146 50.1496 119.011 50.2902 119.014 50.4509Z" fill="white"/>
<path d="M121.832 48.0943C121.813 48.2785 121.678 48.4191 121.495 48.4229L119.356 48.3068C119.172 48.2877 119.031 48.1299 119.05 47.9458C119.069 47.7616 119.204 47.621 119.388 47.6172L121.526 47.7332C121.688 47.7528 121.829 47.9107 121.832 48.0943Z" fill="#E2E2E2"/>
<path d="M121.857 48.0954C121.838 48.3025 121.681 48.4436 121.497 48.4474L119.358 48.3313C119.174 48.3122 119.01 48.1549 119.029 47.9478C119.048 47.7407 119.205 47.5996 119.389 47.5957L121.527 47.7118C121.712 47.7309 121.853 47.9117 121.857 48.0954ZM119.052 47.9473C119.032 48.1085 119.173 48.2663 119.334 48.2629L121.473 48.379C121.633 48.3757 121.769 48.258 121.788 48.0739C121.807 47.9127 121.666 47.7548 121.505 47.7582L119.367 47.6421C119.206 47.6455 119.071 47.7861 119.052 47.9473Z" fill="white"/>
<path d="M124.761 46.3584C124.719 46.5431 124.56 46.6612 124.376 46.6421L119.65 45.7762C119.465 45.7341 119.347 45.5758 119.389 45.3912C119.431 45.2066 119.589 45.0884 119.774 45.1075L124.5 45.9505C124.661 45.993 124.78 46.1743 124.761 46.3584Z" fill="#F3F3F3"/>
<path d="M124.784 46.3574C124.743 46.565 124.562 46.6836 124.377 46.6645L119.651 45.8215C119.467 45.7795 119.325 45.5987 119.367 45.3911C119.408 45.1835 119.59 45.0649 119.774 45.084L124.5 45.927C124.684 45.969 124.803 46.1503 124.784 46.3574ZM119.413 45.3901C119.393 45.5513 119.488 45.7101 119.65 45.7527L124.376 46.5956C124.537 46.6152 124.696 46.52 124.738 46.3354C124.758 46.1742 124.662 46.0154 124.501 45.9729L119.775 45.1299C119.591 45.1108 119.455 45.2285 119.413 45.3901Z" fill="white"/>
<path d="M122.636 43.6469C122.594 43.8315 122.413 43.9502 122.228 43.9081L120.15 43.3773C119.965 43.3352 119.87 43.1535 119.912 42.9689C119.954 42.7842 120.135 42.6656 120.32 42.7077L122.398 43.2385C122.583 43.2806 122.678 43.4623 122.636 43.6469Z" fill="#F3F3F3"/>
<path d="M122.66 43.6457C122.618 43.8303 122.414 43.9724 122.229 43.9074L120.15 43.3766C119.966 43.3345 119.847 43.1303 119.889 42.9457C119.931 42.7611 120.135 42.619 120.32 42.684L122.398 43.2148C122.583 43.2569 122.701 43.4381 122.66 43.6457ZM119.958 42.9442C119.915 43.1059 120.011 43.2876 120.172 43.3302L122.251 43.861C122.412 43.9035 122.571 43.8083 122.613 43.6237C122.656 43.4621 122.56 43.2803 122.398 43.2378L120.32 42.707C120.159 42.6874 120 42.7826 119.958 42.9442Z" fill="white"/>
<path d="M125.852 42.4754C125.787 42.6605 125.582 42.7337 125.42 42.6682L120.951 40.9241C120.789 40.8586 120.692 40.6539 120.758 40.4918C120.823 40.3067 121.028 40.2335 121.19 40.299L125.66 42.043C125.845 42.1081 125.918 42.3133 125.852 42.4754Z" fill="#F3F3F3"/>
<path d="M125.875 42.4985C125.81 42.6836 125.606 42.7798 125.421 42.7147L120.951 40.9707C120.766 40.9057 120.693 40.7005 120.758 40.4924C120.823 40.3073 121.027 40.2112 121.212 40.2762L125.682 42.0202C125.867 42.1082 125.94 42.3134 125.875 42.4985ZM120.804 40.5144C120.738 40.6766 120.811 40.8588 120.973 40.9243L125.443 42.6683C125.605 42.7339 125.763 42.6387 125.829 42.4765C125.894 42.3144 125.822 42.1322 125.66 42.0666L121.19 40.3226C121.029 40.28 120.847 40.3527 120.804 40.5144Z" fill="white"/>
<path d="M124.293 39.4086C124.205 39.5712 124.022 39.6439 123.86 39.5784L121.935 38.654C121.772 38.5884 121.699 38.3833 121.787 38.1977C121.876 38.0351 122.058 37.9623 122.22 38.0279L124.146 38.9523C124.308 39.0407 124.382 39.2459 124.293 39.4086Z" fill="#F3F3F3"/>
<path d="M124.315 39.4305C124.227 39.6161 124.022 39.6893 123.836 39.6013L121.911 38.6769C121.725 38.5889 121.652 38.3837 121.74 38.1981C121.828 38.0125 122.033 37.9393 122.219 38.0273L124.144 38.9517C124.33 39.0168 124.403 39.2449 124.315 39.4305ZM121.809 38.2196C121.744 38.3818 121.794 38.5645 121.956 38.63L123.881 39.5544C124.021 39.6204 124.203 39.5477 124.292 39.408C124.357 39.2459 124.308 39.0632 124.145 38.9977L122.197 38.0737C122.058 38.0077 121.875 38.0575 121.809 38.2196Z" fill="white"/>
<path d="M127.66 38.9023C127.549 39.0654 127.366 39.1152 127.203 39.0038L123.176 36.4466C123.013 36.3581 122.986 36.152 123.075 35.9894C123.163 35.8267 123.369 35.7765 123.532 35.8879L127.582 38.4676C127.722 38.5565 127.772 38.7622 127.66 38.9023Z" fill="#F3F3F3"/>
<path d="M127.682 38.9233C127.571 39.0864 127.342 39.1371 127.179 39.0486L123.152 36.4685C122.989 36.357 122.939 36.1514 123.05 35.9653C123.161 35.8022 123.39 35.7515 123.552 35.84L127.58 38.4201C127.766 38.5311 127.793 38.7601 127.682 38.9233ZM123.096 35.9873C123.007 36.127 123.034 36.3331 123.174 36.4221L127.224 39.0017C127.364 39.0907 127.547 39.0409 127.636 38.9013C127.725 38.7616 127.697 38.5554 127.558 38.4665L123.507 35.8869C123.368 35.7979 123.185 35.8477 123.096 35.9873Z" fill="white"/>
<path d="M126.74 35.59C126.628 35.7301 126.422 35.7804 126.282 35.6685L124.579 34.3949C124.439 34.283 124.412 34.0768 124.524 33.9367C124.635 33.7965 124.841 33.7463 124.981 33.8582L126.685 35.1318C126.825 35.2437 126.852 35.4498 126.74 35.59Z" fill="#F3F3F3"/>
<path d="M126.765 35.6139C126.654 35.777 126.425 35.8047 126.262 35.6933L124.558 34.4197C124.395 34.3083 124.368 34.0792 124.479 33.9161C124.59 33.753 124.82 33.7252 124.983 33.8367L126.686 35.1102C126.849 35.2217 126.877 35.4508 126.765 35.6139ZM124.525 33.9381C124.413 34.0782 124.44 34.2614 124.58 34.3733L126.284 35.6469C126.423 35.7359 126.607 35.7091 126.718 35.5689C126.83 35.4288 126.804 35.2456 126.663 35.1337L124.96 33.8601C124.82 33.7711 124.637 33.7979 124.525 33.9381Z" fill="white"/>
<path d="M130.163 35.748C130.028 35.8886 129.821 35.8929 129.703 35.7576L126.212 32.4542C126.071 32.3194 126.09 32.1123 126.203 31.9951C126.337 31.8545 126.544 31.8501 126.662 31.9855L130.13 35.2893C130.27 35.4012 130.275 35.6308 130.163 35.748Z" fill="#F3F3F3"/>
<path d="M130.166 35.7722C130.031 35.9129 129.801 35.9177 129.66 35.7828L126.192 32.479C126.052 32.3441 126.047 32.1145 126.182 31.9739C126.317 31.8333 126.546 31.8285 126.687 31.9634L130.155 35.2672C130.319 35.4016 130.323 35.6311 130.166 35.7722ZM126.229 32.0189C126.116 32.1361 126.12 32.3427 126.238 32.4551L129.706 35.7589C129.823 35.8713 130.03 35.867 130.142 35.7498C130.254 35.6326 130.25 35.426 130.133 35.3136L126.664 31.9868C126.547 31.8744 126.363 31.8783 126.229 32.0189Z" fill="white"/>
<path d="M129.887 32.3309C129.751 32.4486 129.545 32.4529 129.427 32.3175L127.993 30.7398C127.875 30.6044 127.894 30.3973 128.029 30.2796C128.165 30.162 128.371 30.1577 128.489 30.293L129.923 31.8708C130.04 31.9832 130.022 32.1903 129.887 32.3309Z" fill="#F3F3F3"/>
<path d="M129.91 32.3305C129.752 32.4716 129.545 32.453 129.404 32.3181L127.97 30.7403C127.829 30.6055 127.848 30.3754 128.005 30.2343C128.163 30.0932 128.37 30.1118 128.511 30.2467L129.945 31.8245C130.063 31.9828 130.068 32.2124 129.91 32.3305ZM128.029 30.2797C127.894 30.3974 127.898 30.5811 127.993 30.7169L129.427 32.2947C129.544 32.4071 129.728 32.4262 129.863 32.3085C129.999 32.1909 129.995 32.0072 129.9 31.8714L128.466 30.2936C128.348 30.1582 128.165 30.1621 128.029 30.2797Z" fill="white"/>
<path d="M133.211 33.1361C133.052 33.2543 132.845 33.2127 132.75 33.0539L129.981 29.1383C129.885 28.9795 129.927 28.772 130.063 28.6773C130.221 28.5591 130.429 28.6007 130.524 28.7595L133.27 32.6756C133.388 32.8339 133.347 33.0414 133.211 33.1361Z" fill="#F3F3F3"/>
<path d="M133.21 33.1588C133.052 33.277 132.822 33.2358 132.703 33.0775L129.957 29.1615C129.839 29.0032 129.88 28.7726 130.062 28.654C130.22 28.5359 130.45 28.577 130.569 28.7353L133.315 32.6513C133.433 32.8326 133.392 33.0402 133.21 33.1588ZM130.085 28.6994C129.95 28.7942 129.908 28.9788 130.002 29.1146L132.748 33.0307C132.843 33.1665 133.027 33.1856 133.186 33.0904C133.322 32.9957 133.364 32.8111 133.269 32.6753L130.524 28.7822C130.429 28.6463 130.221 28.6047 130.085 28.6994Z" fill="white"/>
<path d="M133.626 29.7267C133.467 29.8219 133.259 29.7803 133.164 29.6215L132.069 27.784C131.974 27.6252 132.039 27.4172 132.197 27.322C132.356 27.2268 132.564 27.2684 132.659 27.4272L133.754 29.2647C133.826 29.4239 133.785 29.6315 133.626 29.7267Z" fill="#F3F3F3"/>
<path d="M133.625 29.7496C133.443 29.8452 133.235 29.8036 133.14 29.6448L132.045 27.8073C131.95 27.6485 131.991 27.418 132.173 27.3223C132.355 27.2267 132.562 27.2683 132.657 27.4271L133.752 29.2646C133.848 29.4234 133.806 29.6309 133.625 29.7496ZM132.196 27.3448C132.061 27.4395 131.995 27.6246 132.09 27.7605L133.185 29.598C133.28 29.7338 133.464 29.7759 133.601 29.7041C133.737 29.6094 133.802 29.4243 133.707 29.2885L132.612 27.451C132.54 27.3147 132.332 27.2501 132.196 27.3448Z" fill="white"/>
<path d="M136.708 31.1794C136.526 31.2521 136.34 31.187 136.268 31.0278L134.316 26.6358C134.244 26.4765 134.331 26.268 134.491 26.1957C134.673 26.123 134.858 26.188 134.93 26.3473L136.882 30.7393C136.955 30.8986 136.867 31.1071 136.708 31.1794Z" fill="#F3F3F3"/>
<path d="M136.709 31.2009C136.527 31.2736 136.319 31.2091 136.223 31.0273L134.271 26.6353C134.199 26.4531 134.286 26.2446 134.468 26.1719C134.651 26.0992 134.859 26.1637 134.954 26.3455L136.906 30.7375C136.979 30.8967 136.891 31.1053 136.709 31.2009ZM134.515 26.2168C134.356 26.2891 134.291 26.4742 134.363 26.6105L136.315 31.0025C136.387 31.1617 136.572 31.2268 136.731 31.1545C136.891 31.0823 136.956 30.8972 136.884 30.7609L134.932 26.3689C134.837 26.2101 134.674 26.1446 134.515 26.2168Z" fill="white"/>
<path d="M137.764 27.8952C137.582 27.9679 137.396 27.8799 137.323 27.6977L136.615 25.6913C136.543 25.5321 136.653 25.3231 136.813 25.2738C136.973 25.2245 137.181 25.2891 137.254 25.4713L137.962 27.4777C138.034 27.6369 137.946 27.8225 137.764 27.8952Z" fill="#F3F3F3"/>
<path d="M137.788 27.9176C137.605 27.9903 137.397 27.9028 137.324 27.7206L136.616 25.7142C136.544 25.532 136.654 25.323 136.836 25.2502C137.018 25.1775 137.227 25.265 137.3 25.4473L138.008 27.4536C138.057 27.6364 137.97 27.8449 137.788 27.9176ZM136.837 25.2962C136.677 25.3454 136.589 25.531 136.639 25.6908L137.347 27.6971C137.396 27.8569 137.581 27.9219 137.741 27.8726C137.901 27.8234 137.989 27.6378 137.939 27.478L137.231 25.4717C137.182 25.3119 136.996 25.2239 136.837 25.2962Z" fill="white"/>
<path d="M140.518 29.9284C140.336 29.9781 140.15 29.8672 140.123 29.684L139.06 24.9978C139.01 24.8151 139.145 24.6515 139.328 24.6017C139.51 24.552 139.696 24.6629 139.723 24.8461L140.786 29.5323C140.812 29.6925 140.701 29.8786 140.518 29.9284Z" fill="#F3F3F3"/>
<path d="M140.516 29.9526C140.311 30.0028 140.124 29.8689 140.074 29.6862L139.012 25C138.962 24.8173 139.096 24.6078 139.279 24.581C139.484 24.5308 139.671 24.6647 139.721 24.8474L140.783 29.5336C140.833 29.7163 140.722 29.9024 140.516 29.9526ZM139.326 24.626C139.165 24.6523 139.054 24.8154 139.081 24.9986L140.143 29.6848C140.17 29.845 140.356 29.9559 140.515 29.9067C140.676 29.8804 140.787 29.7173 140.76 29.5341L139.698 24.8479C139.648 24.6881 139.486 24.5996 139.326 24.626Z" fill="white"/>
<path d="M142.199 26.9075C142.015 26.9343 141.852 26.8228 141.803 26.6401L141.483 24.5338C141.456 24.3506 141.59 24.187 141.774 24.1602C141.957 24.1334 142.12 24.2448 142.17 24.4275L142.489 26.5339C142.516 26.7171 142.382 26.8807 142.199 26.9075Z" fill="#F3F3F3"/>
<path d="M142.201 26.9295C141.995 26.9568 141.808 26.8229 141.782 26.6397L141.462 24.5334C141.435 24.3502 141.569 24.1636 141.775 24.1364C141.981 24.1091 142.168 24.243 142.195 24.4262L142.514 26.5325C142.541 26.7157 142.407 26.9023 142.201 26.9295ZM141.799 24.1818C141.639 24.2081 141.504 24.3717 141.531 24.5319L141.85 26.6383C141.877 26.7985 142.04 26.9099 142.2 26.8836C142.36 26.8573 142.495 26.6937 142.468 26.5335L142.149 24.4271C142.122 24.2669 141.959 24.1555 141.799 24.1818Z" fill="white"/>
<path d="M145.73 77.1553C160.742 76.8416 172.658 64.4175 172.344 49.4053C172.03 34.3931 159.606 22.4775 144.594 22.7912C129.582 23.1049 117.666 35.529 117.98 50.5412C118.294 65.5534 130.718 77.469 145.73 77.1553Z" fill="url(#paint2_linear_1_6307)" fill-opacity="0.2"/>
<g filter="url(#filter1_d_1_6307)">
<path d="M163.624 32.3398L141.993 46.8481L141.97 46.8486L141.971 46.8715L141.948 46.895L128.737 69.7484L148.51 53.1429L148.532 53.1195V53.0965L163.624 32.3398Z" fill="black" fill-opacity="0.05"/>
</g>
<path d="M163.186 31.0391L141.836 46.8966L148.397 53.1445L163.186 31.0391Z" fill="#CD151E"/>
<path d="M141.856 46.8502L145.16 49.9737L163.184 31.0391L141.856 46.8502Z" fill="#FA5153"/>
<path d="M141.859 46.8496L148.421 53.0975L127.07 68.955L141.859 46.8496Z" fill="#ACACAC"/>
<path d="M127.07 68.955L145.163 49.9731L141.859 46.8496L127.07 68.955Z" fill="#EEEEEE"/>
<path d="M181.054 57.8896L185.029 59.0473C186.34 59.3305 187.672 59.3305 188.962 58.8944C190.055 58.5169 190.841 57.8248 191.037 56.6443C191.256 55.3985 190.884 54.2848 189.792 53.6241C188.699 52.9634 187.498 52.5104 186.362 51.9422C185.27 51.396 184.112 50.9153 183.129 50.1948C179.329 47.3772 179.7 41.9376 183.821 39.6C186.246 38.2239 188.846 38.115 191.511 38.5731C192.391 38.726 193.258 39.0324 194.109 39.2942C194.525 39.4251 194.699 39.6875 194.525 40.1751C194.197 41.1145 193.935 42.0754 193.644 42.9928C192.42 42.687 191.284 42.3006 190.148 42.1622C189.143 42.0527 188.095 42.1402 187.112 42.3371C186.019 42.5775 185.233 43.2986 185.036 44.4777C184.861 45.6575 185.364 46.5749 186.347 47.1425C187.331 47.71 188.357 48.1473 189.384 48.6274C190.411 49.1296 191.503 49.5669 192.486 50.1564C194.751 51.5546 195.85 53.6518 195.61 56.3228C195.392 58.9876 193.993 60.9161 191.547 61.9367C187.921 63.4657 184.295 63.1599 180.712 61.7184C180.252 61.5435 180.1 61.2591 180.252 60.779C180.536 59.8175 180.799 58.8126 181.039 57.8952L181.054 57.8896ZM207.749 60.8381L206.963 61.4497C204.887 63.0007 202.621 63.416 200.213 62.4112C196.689 60.9262 196.15 55.9453 199.165 53.4322C201.065 51.8591 203.359 51.4659 205.718 51.2916C205.871 51.2695 206.024 51.2916 206.177 51.2916C207.466 51.2475 207.662 50.914 207.117 49.7185C206.593 48.5607 205.305 47.8837 203.593 48.1241C202.347 48.299 201.125 48.7357 199.901 49.0635C199.726 49.1075 199.574 49.1944 199.312 49.2818C199.049 48.4009 198.766 47.5779 198.591 46.748C198.547 46.573 198.896 46.2238 199.137 46.0923C201.016 45.1969 203.003 44.8251 205.057 44.9566C205.996 45.022 206.979 45.1315 207.853 45.4373C210.431 46.3547 211.501 48.4299 211.763 51.0078C211.851 51.9906 211.828 52.9741 211.828 53.9349V62.52C210.78 62.52 209.563 62.542 208.355 62.498C208.224 62.498 208.049 62.1708 207.978 61.9518C207.868 61.6687 207.825 61.3402 207.737 60.8381H207.749ZM207.487 55.7263C207.487 55.3991 207.531 55.0707 207.465 54.7435C207.421 54.5472 207.202 54.2414 207.071 54.2193C205.454 54.1753 203.838 54.2634 202.506 55.3551C201.588 56.0976 201.37 57.4523 201.916 58.5226C202.375 59.44 203.423 59.8767 204.625 59.6583C206.591 59.2808 207.487 58.0418 207.487 55.7263ZM226.301 49.3334L225.58 46.843C225.536 46.6467 225.82 46.2748 226.039 46.1659C227.874 45.2265 229.839 44.9201 231.872 44.9427C232.325 44.9392 232.777 44.9684 233.226 45.0302C236.655 45.5109 238.709 47.8478 238.797 51.4306L238.927 60.9111C238.927 61.4132 238.993 61.916 239.037 62.5282C237.814 62.5282 236.612 62.5502 235.411 62.5062C235.258 62.5062 235.061 62.2004 234.995 62.0041C234.886 61.6982 234.842 61.3484 234.733 60.8683C234.406 61.1307 234.165 61.2836 233.946 61.4579C231.871 63.0089 229.605 63.4242 227.218 62.4193C225.427 61.6769 224.45 60.2133 224.269 58.2916C224.073 55.9541 224.946 54.1199 226.956 52.8803C228.682 51.8107 230.647 51.4602 232.635 51.3073C232.984 51.2853 233.327 51.2632 233.683 51.2853C234.273 51.2853 234.405 51.0021 234.339 50.4547C234.164 49.2969 233.422 48.4884 232.176 48.2487C230.517 47.8994 228.943 48.2487 227.392 48.8603C227.065 48.9911 226.759 49.1434 226.3 49.341L226.301 49.3334ZM234.493 55.7766C234.493 55.4274 234.537 55.0556 234.471 54.7284C234.427 54.532 234.209 54.2476 234.056 54.2476C232.483 54.2036 230.932 54.3131 229.621 55.2959C228.682 55.9881 228.398 57.4151 228.9 58.5068C229.337 59.4242 230.385 59.8829 231.587 59.6866C233.553 59.3091 234.493 58.0481 234.493 55.7766ZM224.852 40.8566L223.367 40.6602C221.772 40.5508 220.745 41.2498 220.374 42.8009C220.243 43.3904 220.199 43.9806 220.156 44.5922C220.112 45.1164 220.374 45.3133 220.877 45.2844H223.28C223.674 45.2844 223.914 45.3725 223.892 45.8306V48.6702H221.353C220.173 48.6702 220.173 48.6702 220.173 49.8934V61.4931C220.173 61.8203 220.129 62.1267 220.108 62.5414C218.754 62.5414 217.443 62.5634 216.154 62.5194C216.001 62.5194 215.776 62.257 215.738 62.0601C215.673 61.7977 215.716 61.5139 215.716 61.2295V49.7632C215.716 48.6495 215.716 48.6709 214.647 48.6495C213.314 48.6274 213.401 48.8678 213.401 47.4036V45.8966C213.379 45.4373 213.576 45.285 214.012 45.263C215.672 45.1976 215.672 45.1749 215.804 43.4508C216.022 40.3047 217.704 38.0553 220.479 37.2845C221.812 36.9069 223.166 37.0013 224.521 37.2625C225.045 37.3719 225.213 37.64 225.154 38.1578C225.001 39.0532 224.936 39.9272 224.848 40.8446L224.852 40.8566ZM246.333 47.9718L246.858 47.1853C247.927 45.7003 249.326 44.8697 251.199 44.9352C251.723 44.9572 251.986 45.1101 251.964 45.6776V49.151L251.002 49.1069C248.818 48.9974 247.289 50.1766 246.852 52.3178C246.721 52.9294 246.677 53.5637 246.677 54.1967V62.5194C245.279 62.5194 243.925 62.5194 242.592 62.4974C242.483 62.4974 242.309 62.301 242.265 62.1702C242.199 61.9518 242.221 61.7335 242.221 61.4931L242.111 45.9828C242.111 45.4807 242.242 45.2617 242.788 45.2617H245.279C245.847 45.2397 246.021 45.4801 246.021 46.0262L246.109 47.9265C246.175 47.9265 246.262 47.9485 246.328 47.9705L246.333 47.9718ZM253.694 53.8915L253.672 46.137C253.672 45.4813 253.847 45.2416 254.524 45.2561H257.451C257.953 45.234 258.194 45.409 258.172 45.9331V61.9015C258.172 62.3382 258.02 62.5351 257.561 62.5131C256.513 62.4911 255.442 62.469 254.393 62.5131C253.738 62.5351 253.651 62.2299 253.651 61.6825L253.695 53.884L253.694 53.8915ZM255.938 42.9261C254.474 42.9261 253.492 41.9866 253.492 40.5665C253.492 39.1463 254.519 38.1415 255.982 38.1415C257.402 38.1635 258.407 39.1684 258.407 40.5665C258.407 41.9646 257.402 42.9261 255.938 42.9261Z" fill="#000008"/>
<defs>
<filter id="filter0_d_1_6307" x="114.659" y="20.1334" width="60.6814" height="60.6814" filterUnits="userSpaceOnUse" color-interpolation-filters="sRGB">
<feFlood flood-opacity="0" result="BackgroundImageFix"/>
<feColorMatrix in="SourceAlpha" type="matrix" values="0 0 0 0 0 0 0 0 0 0 0 0 0 0 0 0 0 0 127 0" result="hardAlpha"/>
<feOffset dy="0.474071"/>
<feGaussianBlur stdDeviation="0.474071"/>
<feColorMatrix type="matrix" values="0 0 0 0 0 0 0 0 0 0 0 0 0 0 0 0 0 0 0.266007 0"/>
<feBlend mode="normal" in2="BackgroundImageFix" result="effect1_dropShadow_1_6307"/>
<feBlend mode="normal" in="SourceGraphic" in2="effect1_dropShadow_1_6307" result="shape"/>
</filter>
<filter id="filter1_d_1_6307" x="127.789" y="31.6287" width="36.783" height="39.3045" filterUnits="userSpaceOnUse" color-interpolation-filters="sRGB">
<feFlood flood-opacity="0" result="BackgroundImageFix"/>
<feColorMatrix in="SourceAlpha" type="matrix" values="0 0 0 0 0 0 0 0 0 0 0 0 0 0 0 0 0 0 127 0" result="hardAlpha"/>
<feOffset dy="0.237035"/>
<feGaussianBlur stdDeviation="0.474071"/>
<feColorMatrix type="matrix" values="0 0 0 0 0 0 0 0 0 0 0 0 0 0 0 0 0 0 1 0"/>
<feBlend mode="normal" in2="BackgroundImageFix" result="effect1_dropShadow_1_6307"/>
<feBlend mode="normal" in="SourceGraphic" in2="effect1_dropShadow_1_6307" result="shape"/>
</filter>
<linearGradient id="paint0_linear_1_6307" x1="145.614" y1="79.386" x2="144.386" y2="20.614" gradientUnits="userSpaceOnUse">
<stop offset="0.25" stop-color="#DBDBDA"/>
<stop offset="1" stop-color="white"/>
</linearGradient>
<radialGradient id="paint1_radial_1_6307" cx="0" cy="0" r="1" gradientUnits="userSpaceOnUse" gradientTransform="translate(148.695 43.9499) rotate(-1.197) scale(33.1865 33.1865)">
<stop stop-color="#2ABCE1"/>
<stop offset="0.113629" stop-color="#2ABBE1"/>
<stop offset="1" stop-color="#3375F8"/>
</radialGradient>
<linearGradient id="paint2_linear_1_6307" x1="144.483" y1="42.2119" x2="132.272" y2="65.2383" gradientUnits="userSpaceOnUse">
<stop stop-opacity="0"/>
<stop offset="1"/>
</linearGradient>
</defs>
</svg>
