<svg width="414" height="100" viewBox="0 0 414 100" fill="none" xmlns="http://www.w3.org/2000/svg">
<path d="M48.1816 17.335C45.8722 17.335 44 19.2071 44 21.5166V74.4834C44 76.7928 45.8722 78.665 48.1816 78.665H84.4224C86.7318 78.665 88.604 76.7928 88.604 74.4834V34.0613L71.8775 17.335H48.1816Z" fill="#20A464"/>
<path d="M88.6017 48.3494V34.0623L86.1625 31.623H74.3991C73.4677 31.623 73.0013 32.7491 73.6599 33.4077L88.6017 48.3494Z" fill="url(#paint0_linear_1_4970)"/>
<path d="M71.8828 17.335L88.6093 34.0613H76.0644C73.755 34.0613 71.8828 32.1892 71.8828 29.8797V17.335Z" fill="#8ED1B1"/>
<path fill-rule="evenodd" clip-rule="evenodd" d="M77.4583 47.3037V67.5147H55.1562V47.3037H77.4583ZM64.9134 50.0914H57.944V53.5761H64.9134V50.0914ZM67.7012 53.5761V50.0914H74.6706V53.5761H67.7012ZM64.9134 55.6669H57.944V59.1516H64.9134V55.6669ZM67.7012 59.1516V55.6669H74.6706V59.1516H67.7012ZM64.9134 61.2423H57.944V64.727H64.9134V61.2423ZM67.7012 64.727V61.2423H74.6706V64.727H67.7012Z" fill="white"/>
<path d="M135.059 50.0193V45.5691H149.955C150.107 46.3533 150.197 47.2868 150.197 48.2974C150.197 51.6353 149.282 55.7673 146.343 58.708C143.483 61.6882 139.829 63.2772 134.982 63.2772C126.004 63.2772 118.457 55.9657 118.457 46.9858C118.457 38.0058 126.004 30.6943 134.982 30.6943C139.948 30.6943 143.483 32.6417 146.145 35.1847L143.006 38.3241C141.099 36.5358 138.517 35.1453 134.982 35.1453C128.428 35.1453 123.303 40.4299 123.303 46.9866C123.303 53.5434 128.428 58.8278 134.982 58.8278C139.233 58.8278 141.656 57.1191 143.205 55.5695C144.467 54.3071 145.298 52.4958 145.621 50.0201L135.059 50.0193Z" fill="#55585D"/>
<path fill-rule="evenodd" clip-rule="evenodd" d="M172.894 52.7881C172.894 58.828 168.167 63.2783 162.367 63.2783C156.567 63.2783 151.84 58.828 151.84 52.7881C151.84 46.7088 156.567 42.2979 162.367 42.2979C168.168 42.2979 172.894 46.7079 172.894 52.7881ZM168.287 52.7881C168.287 49.013 165.546 46.4305 162.368 46.4305C159.19 46.4305 156.448 49.013 156.448 52.7881C156.448 56.523 159.189 59.1455 162.368 59.1455C165.546 59.1455 168.287 56.523 168.287 52.7881Z" fill="#55585D"/>
<path fill-rule="evenodd" clip-rule="evenodd" d="M195.86 52.7881C195.86 58.828 191.133 63.2783 185.333 63.2783C179.533 63.2783 174.806 58.828 174.806 52.7881C174.806 46.7088 179.533 42.2979 185.333 42.2979C191.134 42.2979 195.86 46.7079 195.86 52.7881ZM191.253 52.7881C191.253 49.013 188.512 46.4305 185.334 46.4305C182.156 46.4305 179.414 49.013 179.414 52.7881C179.414 56.523 182.156 59.1455 185.334 59.1455C188.512 59.1455 191.253 56.523 191.253 52.7881Z" fill="#55585D"/>
<path fill-rule="evenodd" clip-rule="evenodd" d="M217.871 42.9327V61.767C217.871 69.5157 213.303 72.6944 207.9 72.6944C202.815 72.6944 199.757 69.277 198.604 66.4961L202.617 64.8268C203.332 66.5355 205.079 68.5617 207.9 68.5617C211.356 68.5617 213.501 66.4157 213.501 62.4027V60.8926H213.342C212.309 62.164 210.323 63.2764 207.82 63.2764C202.577 63.2764 197.77 58.7072 197.77 52.8264C197.77 46.9054 202.577 42.2969 207.82 42.2969C210.323 42.2969 212.309 43.4092 213.342 44.6413H213.501V42.9327H217.871ZM213.819 52.8273C213.819 49.1317 211.355 46.4296 208.217 46.4296C205.04 46.4296 202.377 49.1317 202.377 52.8273C202.377 56.4826 205.039 59.1453 208.217 59.1453C211.356 59.1453 213.819 56.4826 213.819 52.8273Z" fill="#55585D"/>
<path d="M225.677 31.9111V62.6426H221.069V31.9111H225.677Z" fill="#55585D"/>
<path fill-rule="evenodd" clip-rule="evenodd" d="M243.47 56.2437L247.045 58.6275C245.892 60.3362 243.112 63.2762 238.306 63.2762C232.347 63.2762 227.898 58.6669 227.898 52.786C227.898 46.5476 232.386 42.2959 237.789 42.2959C243.231 42.2959 245.892 46.6271 246.767 48.9716L247.244 50.1635L233.22 55.9647C234.294 58.0705 235.962 59.1435 238.306 59.1435C240.649 59.1452 242.278 57.9926 243.47 56.2437ZM232.466 52.4694L241.84 48.5754C241.324 47.2645 239.775 46.3507 237.947 46.3507C235.605 46.3498 232.347 48.4162 232.466 52.4694Z" fill="#55585D"/>
<path d="M258.721 61.3469C260.586 62.7052 262.637 63.3843 264.874 63.3843C266.392 63.3843 267.87 63.0914 269.308 62.5054C270.746 61.9195 271.932 61.0007 272.864 59.7489C273.822 58.4971 274.302 56.9524 274.302 55.1147C274.302 52.8509 273.623 51.0665 272.264 49.7615C270.906 48.4298 269.015 47.3246 266.592 46.4457L264.714 45.8064C262.93 45.1938 261.598 44.5414 260.719 43.8489C259.84 43.1298 259.401 42.2109 259.401 41.0924C259.401 39.8407 259.92 38.802 260.959 37.9763C261.997 37.1507 263.249 36.7379 264.714 36.7379C266.259 36.7379 267.497 37.1374 268.429 37.9364C269.388 38.7354 270.001 39.6276 270.267 40.613L273.463 39.2547C273.17 38.4025 272.651 37.5369 271.905 36.658C271.186 35.7791 270.214 35.0334 268.989 34.4208C267.763 33.8083 266.325 33.502 264.674 33.502C263.023 33.502 261.531 33.8482 260.2 34.5407C258.868 35.2331 257.829 36.1653 257.084 37.3371C256.338 38.4824 255.965 39.734 255.965 41.0924C255.965 43.1698 256.604 44.7944 257.883 45.9663C259.161 47.1381 260.812 48.0836 262.836 48.8027L264.634 49.4419C266.845 50.1876 268.429 50.9999 269.388 51.8788C270.373 52.7311 270.866 53.823 270.866 55.1547C270.866 56.6994 270.294 57.9245 269.148 58.8301C268.003 59.709 266.605 60.1484 264.954 60.1484C263.302 60.1484 261.864 59.6024 260.639 58.5105C259.414 57.4185 258.575 56.0203 258.122 54.3157L254.886 55.6341C255.579 58.0843 256.857 59.9886 258.721 61.3469Z" fill="#55585D"/>
<path d="M280.841 34.1406H277.445V62.7445H280.841V51.3988C280.841 50.3069 281.094 49.2549 281.6 48.2428C282.132 47.2307 282.838 46.4051 283.717 45.7659C284.623 45.1267 285.608 44.8071 286.673 44.8071C288.165 44.8071 289.377 45.2466 290.309 46.1255C291.241 47.0044 291.707 48.3626 291.707 50.2003V62.7445H295.103V49.681C295.103 47.284 294.45 45.3664 293.145 43.9282C291.84 42.4634 289.949 41.731 287.472 41.731C286.034 41.731 284.702 42.0772 283.477 42.7697C282.279 43.4622 281.4 44.3277 280.841 45.3664H280.681L280.841 42.5699V34.1406Z" fill="#55585D"/>
<path fill-rule="evenodd" clip-rule="evenodd" d="M307.975 63.3841C306.031 63.3841 304.287 62.918 302.742 61.9859C301.197 61.0537 299.985 59.7753 299.106 58.1507C298.254 56.4995 297.828 54.6485 297.828 52.5977C297.828 50.6269 298.228 48.8158 299.027 47.1646C299.852 45.5133 301.011 44.195 302.502 43.2095C303.994 42.2241 305.725 41.7314 307.696 41.7314C309.693 41.7314 311.424 42.1842 312.889 43.0897C314.354 43.9686 315.472 45.1937 316.245 46.7651C317.044 48.3364 317.443 50.1342 317.443 52.1583C317.443 52.5578 317.403 52.904 317.323 53.197H301.224C301.304 54.7417 301.677 56.0467 302.342 57.112C303.008 58.1773 303.847 58.9763 304.859 59.509C305.898 60.0417 306.977 60.308 308.095 60.308C310.705 60.308 312.716 59.0829 314.128 56.6326L317.004 58.0309C316.125 59.6821 314.926 60.9871 313.408 61.9459C311.917 62.9047 310.106 63.3841 307.975 63.3841ZM313.848 50.4005C313.795 49.5482 313.555 48.696 313.129 47.8437C312.703 46.9914 312.023 46.2723 311.091 45.6864C310.186 45.1005 309.041 44.8075 307.656 44.8075C306.058 44.8075 304.699 45.3269 303.581 46.3656C302.489 47.3776 301.77 48.7226 301.423 50.4005H313.848Z" fill="#55585D"/>
<path fill-rule="evenodd" clip-rule="evenodd" d="M323.687 61.9859C325.232 62.918 326.976 63.3841 328.921 63.3841C331.051 63.3841 332.862 62.9047 334.354 61.9459C335.872 60.9871 337.07 59.6821 337.949 58.0309L335.073 56.6326C333.661 59.0829 331.65 60.308 329.04 60.308C327.922 60.308 326.843 60.0417 325.805 59.509C324.792 58.9763 323.954 58.1773 323.288 57.112C322.622 56.0467 322.249 54.7417 322.169 53.197H338.269C338.349 52.904 338.389 52.5578 338.389 52.1583C338.389 50.1342 337.989 48.3364 337.19 46.7651C336.418 45.1937 335.299 43.9686 333.834 43.0897C332.37 42.1842 330.638 41.7314 328.641 41.7314C326.67 41.7314 324.939 42.2241 323.447 43.2095C321.956 44.195 320.798 45.5133 319.972 47.1646C319.173 48.8158 318.773 50.6269 318.773 52.5977C318.773 54.6485 319.2 56.4995 320.052 58.1507C320.931 59.7753 322.142 61.0537 323.687 61.9859ZM334.074 47.8437C334.5 48.696 334.74 49.5482 334.793 50.4005H322.369C322.715 48.7226 323.434 47.3776 324.526 46.3656C325.645 45.3269 327.003 44.8075 328.601 44.8075C329.986 44.8075 331.131 45.1005 332.037 45.6864C332.969 46.2723 333.648 46.9914 334.074 47.8437Z" fill="#55585D"/>
<path d="M347.823 63.0649C346.997 63.0649 346.225 62.9318 345.505 62.6654C344.813 62.3991 344.227 62.0395 343.748 61.5868C343.215 61.0808 342.816 60.4948 342.549 59.829C342.283 59.1632 342.15 58.3509 342.15 57.3921V45.4471H338.594V42.371H342.15V36.6182H345.545V42.371H350.499V45.4471H345.545V56.5531C345.545 57.6717 345.758 58.4973 346.185 59.03C346.691 59.6159 347.423 59.9089 348.382 59.9089C349.154 59.9089 349.9 59.6825 350.619 59.2298V62.5456C350.22 62.732 349.807 62.8652 349.381 62.9451C348.981 63.025 348.462 63.0649 347.823 63.0649Z" fill="#55585D"/>
<path d="M355.486 61.866C356.951 62.8781 358.776 63.3841 360.959 63.3841C362.451 63.3841 363.809 63.1311 365.034 62.6251C366.259 62.119 367.232 61.4 367.951 60.4678C368.67 59.509 369.029 58.4037 369.029 57.152C369.029 55.7138 368.523 54.502 367.511 53.5166C366.499 52.5045 364.994 51.7455 362.997 51.2394L360.041 50.4804C358.869 50.1874 357.99 49.8146 357.404 49.3618C356.818 48.8824 356.525 48.2698 356.525 47.5241C356.525 46.7251 356.938 46.0726 357.764 45.5666C358.616 45.0339 359.601 44.7676 360.72 44.7676C363.037 44.7676 364.648 45.6731 365.554 47.4842L368.51 46.1259C367.924 44.7409 366.925 43.6623 365.514 42.8899C364.129 42.1176 362.544 41.7314 360.76 41.7314C359.401 41.7314 358.136 41.9711 356.965 42.4505C355.793 42.9299 354.847 43.6224 354.128 44.5279C353.436 45.4068 353.089 46.4321 353.089 47.604C353.089 49.1221 353.609 50.3605 354.647 51.3193C355.686 52.2781 357.018 52.9573 358.642 53.3568L361.119 53.9959C362.664 54.3688 363.796 54.8216 364.515 55.3542C365.234 55.8603 365.594 56.5394 365.594 57.3917C365.594 58.3505 365.141 59.0962 364.235 59.6288C363.33 60.1349 362.238 60.3879 360.959 60.3879C359.761 60.3879 358.656 60.055 357.644 59.3892C356.658 58.7233 355.913 57.7779 355.406 56.5527L352.37 57.911C352.983 59.509 354.022 60.8273 355.486 61.866Z" fill="#55585D"/>
<defs>
<linearGradient id="paint0_linear_1_4970" x1="80.9766" y1="48.3494" x2="80.9766" y2="31.2746" gradientUnits="userSpaceOnUse">
<stop stop-color="#20A464"/>
<stop offset="1" stop-color="#207E55"/>
</linearGradient>
</defs>
</svg>
