<svg width="300" height="100" viewBox="0 0 300 100" fill="none" xmlns="http://www.w3.org/2000/svg">
<path d="M114.219 64.371L116.687 58.6385C119.354 60.6289 122.897 61.664 126.401 61.664C128.988 61.664 130.621 60.6687 130.621 59.156C130.581 54.9362 115.134 58.2404 115.015 47.6511C114.975 42.2769 119.752 38.1367 126.52 38.1367C130.541 38.1367 134.562 39.132 137.428 41.4011L135.119 47.253C132.492 45.5811 129.227 44.3868 126.122 44.3868C124.012 44.3868 122.619 45.382 122.619 46.6559C122.659 50.7961 138.224 48.5269 138.384 58.6385C138.384 64.1321 133.726 67.9936 127.038 67.9936C122.141 67.9936 117.642 66.8392 114.219 64.371Z" fill="#000008"/>
<path d="M208.928 56.5684C207.694 58.7181 205.385 60.191 202.718 60.191C198.776 60.191 195.591 57.0063 195.591 53.0652C195.591 49.1241 198.776 45.9393 202.718 45.9393C205.385 45.9393 207.694 47.4123 208.928 49.562L215.736 45.7801C213.188 41.2419 208.291 38.1367 202.718 38.1367C194.477 38.1367 187.789 44.8247 187.789 53.0652C187.789 61.3057 194.477 67.9936 202.718 67.9936C208.331 67.9936 213.188 64.9283 215.736 60.3503L208.928 56.5684Z" fill="#000008"/>
<path d="M141.811 25.7559H150.33V67.4361H141.811V25.7559Z" fill="#000008"/>
<path d="M219.079 25.7559V67.4361H227.598V54.936L237.71 67.4361H248.618L235.759 52.5872L247.663 38.7336H237.232L227.598 50.2385V25.7559H219.079Z" fill="#000008"/>
<path d="M175.646 56.648C174.412 58.6783 171.864 60.191 168.998 60.191C165.057 60.191 161.872 57.0063 161.872 53.0652C161.872 49.1241 165.057 45.9393 168.998 45.9393C171.864 45.9393 174.412 47.5317 175.646 49.6018V56.648ZM175.646 38.7339V42.1177C174.253 39.7689 170.789 38.1367 167.167 38.1367C159.682 38.1367 153.79 44.7451 153.79 53.0254C153.79 61.3057 159.682 67.9936 167.167 67.9936C170.789 67.9936 174.253 66.3614 175.646 64.0127V67.3965H184.166V38.7339H175.646Z" fill="#000008"/>
<path d="M61.4933 56.6003C61.4933 59.4935 59.13 61.857 56.2369 61.857C53.3438 61.857 50.9805 59.4935 50.9805 56.6003C50.9805 53.7071 53.3438 51.3438 56.2369 51.3438H61.4933V56.6003Z" fill="#E01E5A"/>
<path d="M64.1406 56.6004C64.1406 53.7072 66.504 51.3438 69.397 51.3438C72.2901 51.3438 74.6535 53.7072 74.6535 56.6004V69.7625C74.6535 72.6557 72.2901 75.0191 69.397 75.0191C66.504 75.0191 64.1406 72.6557 64.1406 69.7625V56.6004Z" fill="#E01E5A"/>
<path d="M69.397 35.4938C66.504 35.4938 64.1406 33.1304 64.1406 30.2372C64.1406 27.344 66.504 24.9805 69.397 24.9805C72.2901 24.9805 74.6535 27.344 74.6535 30.2372V35.4938H69.397Z" fill="#36C5F0"/>
<path d="M69.3983 38.1406C72.2914 38.1406 74.6547 40.5041 74.6547 43.3973C74.6547 46.2905 72.2914 48.654 69.3983 48.654H56.2369C53.3438 48.654 50.9805 46.2905 50.9805 43.3973C50.9805 40.5041 53.3438 38.1406 56.2369 38.1406H69.3983Z" fill="#36C5F0"/>
<path d="M90.5068 43.3972C90.5068 40.504 92.8701 38.1406 95.7632 38.1406C98.6562 38.1406 101.019 40.504 101.019 43.3972C101.019 46.2904 98.6562 48.6539 95.7632 48.6539H90.5068V43.3972Z" fill="#2EB67D"/>
<path d="M87.8595 43.3992C87.8595 46.2924 85.4962 48.6559 82.6031 48.6559C79.7101 48.6559 77.3467 46.2924 77.3467 43.3992V30.2372C77.3467 27.344 79.7101 24.9805 82.6031 24.9805C85.4962 24.9805 87.8595 27.344 87.8595 30.2372V43.3992Z" fill="#2EB67D"/>
<path d="M82.6031 64.5059C85.4962 64.5059 87.8595 66.8693 87.8595 69.7625C87.8595 72.6557 85.4962 75.0192 82.6031 75.0192C79.7101 75.0192 77.3467 72.6557 77.3467 69.7625V64.5059H82.6031Z" fill="#ECB22E"/>
<path d="M82.6031 61.8572C79.7101 61.8572 77.3467 59.4936 77.3467 56.6004C77.3467 53.7072 79.7101 51.3438 82.6031 51.3438H95.7646C98.6576 51.3438 101.02 53.7072 101.02 56.6004C101.02 59.4936 98.6576 61.8572 95.7646 61.8572H82.6031Z" fill="#ECB22E"/>
</svg>
