<svg width="360" height="100" viewBox="0 0 360 100" fill="none" xmlns="http://www.w3.org/2000/svg">
<path d="M102.201 38.0898L92.4778 61.9992H89.2977L79.5742 38.0898H82.4047C82.7155 38.0898 82.9652 38.1675 83.1539 38.3229C83.3537 38.4783 83.5036 38.6781 83.6035 38.9223L90.0636 55.1727C90.219 55.5723 90.3689 56.0108 90.5132 56.4881C90.6686 56.9654 90.8073 57.4649 90.9294 57.9866C91.0404 57.4649 91.1625 56.9654 91.2957 56.4881C91.4289 56.0108 91.5732 55.5723 91.7286 55.1727L98.1721 38.9223C98.2498 38.7003 98.3885 38.5061 98.5883 38.3396C98.7992 38.1731 99.0545 38.0898 99.3542 38.0898H102.201Z" fill="#000008"/>
<path d="M106.4 45.0832V61.9996H103.153V45.0832H106.4ZM107.016 39.8551C107.016 40.1548 106.955 40.4434 106.833 40.7209C106.711 40.9873 106.544 41.226 106.333 41.4369C106.134 41.6367 105.895 41.7976 105.617 41.9197C105.34 42.0307 105.051 42.0862 104.752 42.0862C104.452 42.0862 104.169 42.0307 103.903 41.9197C103.636 41.7976 103.398 41.6367 103.187 41.4369C102.987 41.226 102.826 40.9873 102.704 40.7209C102.593 40.4434 102.537 40.1548 102.537 39.8551C102.537 39.5443 102.593 39.2557 102.704 38.9893C102.826 38.7118 102.987 38.4732 103.187 38.2734C103.398 38.0625 103.636 37.9015 103.903 37.7905C104.169 37.6684 104.452 37.6074 104.752 37.6074C105.051 37.6074 105.34 37.6684 105.617 37.7905C105.895 37.9015 106.134 38.0625 106.333 38.2734C106.544 38.4732 106.711 38.7118 106.833 38.9893C106.955 39.2557 107.016 39.5443 107.016 39.8551Z" fill="#000008"/>
<path d="M119.821 47.9986C119.732 48.1429 119.638 48.2483 119.538 48.3149C119.438 48.3704 119.31 48.3982 119.155 48.3982C118.977 48.3982 118.778 48.3371 118.556 48.215C118.345 48.0929 118.084 47.9597 117.773 47.8154C117.473 47.6711 117.118 47.5379 116.707 47.4158C116.297 47.2937 115.808 47.2327 115.242 47.2327C114.776 47.2327 114.349 47.2937 113.96 47.4158C113.583 47.5268 113.261 47.6878 112.994 47.8987C112.728 48.0985 112.523 48.3427 112.378 48.6313C112.234 48.9088 112.162 49.2085 112.162 49.5304C112.162 49.9522 112.284 50.3018 112.528 50.5793C112.784 50.8568 113.111 51.0955 113.511 51.2953C113.921 51.4951 114.382 51.6782 114.893 51.8447C115.414 52.0001 115.941 52.1666 116.474 52.3442C117.018 52.5218 117.545 52.7272 118.056 52.9603C118.578 53.1823 119.038 53.4653 119.438 53.8094C119.849 54.1424 120.176 54.5476 120.42 55.0249C120.676 55.5022 120.803 56.0849 120.803 56.7731C120.803 57.5612 120.659 58.2938 120.37 58.9709C120.093 59.6369 119.677 60.2141 119.122 60.7025C118.578 61.1909 117.901 61.5739 117.09 61.8514C116.28 62.1289 115.353 62.2676 114.31 62.2676C113.144 62.2676 112.068 62.0734 111.08 61.6849C110.092 61.2964 109.265 60.8024 108.599 60.203L109.365 58.9543C109.454 58.7989 109.565 58.6823 109.698 58.6046C109.831 58.5158 110.009 58.4714 110.231 58.4714C110.441 58.4714 110.658 58.5491 110.88 58.7045C111.102 58.8599 111.368 59.032 111.679 59.2207C111.99 59.3983 112.367 59.5648 112.811 59.7202C113.255 59.8645 113.81 59.9366 114.476 59.9366C115.031 59.9366 115.514 59.87 115.925 59.7368C116.336 59.5925 116.674 59.4038 116.94 59.1707C117.218 58.9265 117.423 58.649 117.557 58.3382C117.69 58.0274 117.756 57.7 117.756 57.3559C117.756 56.9119 117.629 56.5456 117.373 56.257C117.129 55.9573 116.802 55.702 116.391 55.4911C115.991 55.2802 115.531 55.097 115.009 54.9416C114.487 54.7862 113.955 54.6197 113.411 54.4421C112.867 54.2645 112.334 54.0592 111.812 53.8261C111.291 53.593 110.824 53.2988 110.414 52.9436C110.014 52.5884 109.687 52.1555 109.431 51.6449C109.187 51.1343 109.065 50.5127 109.065 49.7801C109.065 49.1252 109.198 48.4981 109.465 47.8987C109.742 47.2993 110.136 46.772 110.647 46.3169C111.169 45.8618 111.807 45.5011 112.562 45.2347C113.327 44.9572 114.199 44.8184 115.176 44.8184C116.297 44.8184 117.307 44.996 118.206 45.3512C119.116 45.7064 119.893 46.1948 120.537 46.8164L119.821 47.9986Z" fill="#000008"/>
<path d="M136.599 45.084V62.0004H134.651C134.207 62.0004 133.918 61.784 133.785 61.3511L133.552 59.6528C133.185 60.0413 132.802 60.3965 132.403 60.7184C132.003 61.0403 131.576 61.3178 131.121 61.5509C130.666 61.7729 130.183 61.9449 129.672 62.067C129.162 62.2002 128.612 62.2668 128.024 62.2668C127.092 62.2668 126.27 62.1114 125.56 61.8006C124.86 61.4898 124.272 61.0569 123.795 60.5019C123.318 59.9358 122.957 59.2587 122.713 58.4706C122.468 57.6825 122.346 56.8112 122.346 55.8566V45.084H125.61V55.8566C125.61 57.0665 125.887 58.01 126.442 58.6871C126.997 59.3531 127.846 59.6861 128.99 59.6861C129.822 59.6861 130.599 59.4918 131.321 59.1033C132.042 58.7037 132.719 58.1598 133.352 57.4716V45.084H136.599Z" fill="#000008"/>
<path d="M149.418 54.4912C148.097 54.5356 146.976 54.641 146.055 54.8075C145.134 54.9629 144.385 55.1738 143.807 55.4402C143.23 55.7066 142.814 56.023 142.559 56.3893C142.303 56.7445 142.176 57.1441 142.176 57.5881C142.176 58.0099 142.242 58.3762 142.375 58.687C142.52 58.9867 142.708 59.2364 142.942 59.4362C143.186 59.6249 143.469 59.7637 143.791 59.8525C144.113 59.9413 144.462 59.9857 144.84 59.9857C145.339 59.9857 145.794 59.9357 146.205 59.8358C146.627 59.7359 147.021 59.5972 147.387 59.4196C147.753 59.2309 148.103 59.0033 148.436 58.7369C148.769 58.4705 149.096 58.1653 149.418 57.8212V54.4912ZM139.895 47.4482C140.838 46.5491 141.859 45.8776 142.958 45.4336C144.068 44.9896 145.284 44.7676 146.605 44.7676C147.57 44.7676 148.425 44.9285 149.169 45.2504C149.912 45.5612 150.539 45.9997 151.05 46.5658C151.561 47.1319 151.944 47.809 152.199 48.5971C152.465 49.3852 152.598 50.2565 152.598 51.2111V62.0003H151.15C150.828 62.0003 150.584 61.9504 150.417 61.8505C150.251 61.7395 150.118 61.5397 150.018 61.2511L149.668 59.7692C149.235 60.1688 148.808 60.524 148.386 60.8348C147.964 61.1345 147.52 61.3954 147.054 61.6174C146.599 61.8283 146.111 61.9892 145.589 62.1002C145.067 62.2112 144.49 62.2667 143.857 62.2667C143.191 62.2667 142.564 62.1779 141.976 62.0003C141.399 61.8116 140.894 61.5286 140.461 61.1512C140.028 60.7738 139.684 60.302 139.428 59.7359C139.184 59.1698 139.062 58.5094 139.062 57.7546C139.062 57.0886 139.24 56.4503 139.595 55.8398C139.961 55.2182 140.55 54.6632 141.36 54.1748C142.181 53.6864 143.247 53.2868 144.557 52.976C145.877 52.6652 147.498 52.4876 149.418 52.4432V51.2111C149.418 49.9346 149.146 48.98 148.603 48.3473C148.059 47.7146 147.259 47.3983 146.205 47.3983C145.495 47.3983 144.895 47.4871 144.407 47.6647C143.929 47.8423 143.513 48.0421 143.158 48.2641C142.814 48.475 142.509 48.6692 142.242 48.8468C141.987 49.0244 141.721 49.1132 141.443 49.1132C141.221 49.1132 141.027 49.0522 140.86 48.9301C140.705 48.808 140.577 48.6637 140.477 48.4972L139.895 47.4482Z" fill="#000008"/>
<path d="M159.062 37.4238V61.9992H155.798V37.4238H159.062Z" fill="#000008"/>
<path d="M183.701 41.9867C183.59 42.1754 183.473 42.3142 183.351 42.403C183.229 42.4918 183.073 42.5362 182.885 42.5362C182.685 42.5362 182.457 42.4474 182.202 42.2698C181.947 42.0811 181.625 41.8757 181.236 41.6537C180.859 41.4206 180.404 41.2153 179.871 41.0377C179.338 40.849 178.7 40.7546 177.956 40.7546C177.257 40.7546 176.641 40.849 176.108 41.0377C175.586 41.2153 175.148 41.465 174.793 41.7869C174.438 42.0977 174.166 42.4696 173.977 42.9025C173.799 43.3243 173.711 43.7849 173.711 44.2844C173.711 44.9282 173.872 45.461 174.193 45.8828C174.526 46.3046 174.959 46.6654 175.492 46.9651C176.025 47.2648 176.63 47.5256 177.307 47.7476C177.984 47.9696 178.678 48.2027 179.388 48.4469C180.099 48.68 180.792 48.952 181.469 49.2628C182.147 49.5736 182.752 49.9676 183.284 50.4449C183.817 50.9111 184.244 51.4883 184.566 52.1765C184.899 52.8536 185.066 53.6861 185.066 54.674C185.066 55.7285 184.883 56.7164 184.516 57.6377C184.161 58.559 183.64 59.3638 182.951 60.052C182.263 60.7402 181.414 61.2841 180.404 61.6837C179.405 62.0722 178.267 62.2664 176.991 62.2664C176.225 62.2664 175.481 62.1887 174.76 62.0333C174.038 61.889 173.355 61.6837 172.712 61.4173C172.068 61.1398 171.463 60.8123 170.897 60.4349C170.342 60.0464 169.842 59.6135 169.398 59.1362L170.414 57.4379C170.514 57.3047 170.63 57.1937 170.764 57.1049C170.908 57.0161 171.069 56.9717 171.246 56.9717C171.48 56.9717 171.746 57.0938 172.046 57.338C172.356 57.5822 172.734 57.8542 173.178 58.1539C173.633 58.4425 174.171 58.7089 174.793 58.9531C175.426 59.1973 176.191 59.3194 177.091 59.3194C177.823 59.3194 178.478 59.225 179.055 59.0363C179.632 58.8365 180.115 58.559 180.504 58.2038C180.903 57.8375 181.209 57.3991 181.419 56.8885C181.63 56.3779 181.736 55.8118 181.736 55.1902C181.736 54.4909 181.575 53.9192 181.253 53.4752C180.931 53.0312 180.504 52.6594 179.971 52.3597C179.438 52.06 178.833 51.8047 178.156 51.5938C177.479 51.3829 176.785 51.1664 176.075 50.9444C175.364 50.7113 174.671 50.4449 173.994 50.1452C173.317 49.8455 172.712 49.457 172.179 48.9797C171.646 48.4913 171.219 47.8864 170.897 47.1649C170.575 46.4323 170.414 45.5332 170.414 44.4676C170.414 43.6129 170.58 42.7859 170.913 41.9867C171.246 41.1875 171.729 40.4827 172.362 39.8722C173.006 39.2506 173.794 38.7566 174.726 38.3903C175.659 38.0129 176.724 37.8242 177.923 37.8242C179.266 37.8242 180.498 38.0407 181.619 38.4736C182.752 38.8954 183.734 39.5059 184.566 40.3051L183.701 41.9867Z" fill="#000008"/>
<path d="M192.291 62.2659C190.926 62.2659 189.871 61.883 189.128 61.1171C188.395 60.3512 188.029 59.2578 188.029 57.837V47.7138H186.064C185.875 47.7138 185.714 47.6583 185.581 47.5473C185.459 47.4252 185.398 47.2476 185.398 47.0145V45.6992L188.145 45.3162L188.878 40.2713C188.922 40.0826 189.006 39.9383 189.128 39.8384C189.261 39.7274 189.427 39.6719 189.627 39.6719H191.275V45.3495H196.071V47.7138H191.275V57.6206C191.275 58.2866 191.436 58.7861 191.758 59.1191C192.091 59.441 192.513 59.6019 193.024 59.6019C193.323 59.6019 193.579 59.5631 193.79 59.4854C194.012 59.4077 194.2 59.3244 194.356 59.2356C194.511 59.1357 194.644 59.0469 194.755 58.9692C194.866 58.8915 194.966 58.8527 195.055 58.8527C195.166 58.8527 195.249 58.8804 195.305 58.9359C195.371 58.9803 195.438 59.058 195.505 59.169L196.47 60.7341C195.937 61.2225 195.305 61.5999 194.572 61.8663C193.84 62.1327 193.079 62.2659 192.291 62.2659Z" fill="#000008"/>
<path d="M211.798 45.084V62.0004H209.85C209.406 62.0004 209.117 61.784 208.984 61.3511L208.751 59.6528C208.385 60.0413 208.002 60.3965 207.602 60.7184C207.202 61.0403 206.775 61.3178 206.32 61.5509C205.865 61.7729 205.382 61.9449 204.872 62.067C204.361 62.2002 203.811 62.2668 203.223 62.2668C202.291 62.2668 201.469 62.1114 200.759 61.8006C200.06 61.4898 199.471 61.0569 198.994 60.5019C198.517 59.9358 198.156 59.2587 197.912 58.4706C197.668 57.6825 197.546 56.8112 197.546 55.8566V45.084H200.809V55.8566C200.809 57.0665 201.086 58.01 201.641 58.6871C202.196 59.3531 203.046 59.6861 204.189 59.6861C205.021 59.6861 205.798 59.4918 206.52 59.1033C207.241 58.7037 207.918 58.1598 208.551 57.4716V45.084H211.798Z" fill="#000008"/>
<path d="M226.134 49.1787C225.602 48.4794 225.024 47.991 224.403 47.7135C223.792 47.436 223.104 47.2973 222.338 47.2973C220.851 47.2973 219.696 47.8356 218.875 48.9123C218.065 49.9779 217.66 51.5375 217.66 53.591C217.66 54.6677 217.748 55.589 217.926 56.3549C218.115 57.1097 218.381 57.7313 218.725 58.2197C219.08 58.697 219.513 59.0522 220.024 59.2853C220.534 59.5073 221.112 59.6183 221.755 59.6183C222.699 59.6183 223.515 59.4074 224.203 58.9856C224.891 58.5638 225.535 57.9699 226.134 57.204V49.1787ZM229.398 37.4238V61.9992H227.433C226.978 61.9992 226.695 61.7828 226.584 61.3499L226.301 59.4018C225.579 60.2565 224.758 60.9447 223.837 61.4664C222.926 61.977 221.872 62.2323 220.673 62.2323C219.707 62.2323 218.831 62.0436 218.042 61.6662C217.265 61.2888 216.6 60.7394 216.044 60.0179C215.49 59.2853 215.062 58.3806 214.762 57.3039C214.463 56.2272 214.313 54.9896 214.313 53.591C214.313 52.3367 214.479 51.1712 214.812 50.0945C215.145 49.0178 215.628 48.0854 216.261 47.2973C216.894 46.5092 217.66 45.8931 218.559 45.4491C219.458 44.994 220.473 44.7665 221.606 44.7665C222.627 44.7665 223.493 44.933 224.203 45.266C224.924 45.599 225.568 46.0707 226.134 46.6812V37.4238H229.398Z" fill="#000008"/>
<path d="M237.316 45.0832V61.9996H234.069V45.0832H237.316ZM237.932 39.8551C237.932 40.1548 237.871 40.4434 237.749 40.7209C237.627 40.9873 237.46 41.226 237.249 41.4369C237.049 41.6367 236.811 41.7976 236.533 41.9197C236.256 42.0307 235.967 42.0862 235.668 42.0862C235.368 42.0862 235.085 42.0307 234.818 41.9197C234.552 41.7976 234.313 41.6367 234.102 41.4369C233.903 41.226 233.742 40.9873 233.62 40.7209C233.509 40.4434 233.453 40.1548 233.453 39.8551C233.453 39.5443 233.509 39.2557 233.62 38.9893C233.742 38.7118 233.903 38.4732 234.102 38.2734C234.313 38.0625 234.552 37.9015 234.818 37.7905C235.085 37.6684 235.368 37.6074 235.668 37.6074C235.967 37.6074 236.256 37.6684 236.533 37.7905C236.811 37.9015 237.049 38.0625 237.249 38.2734C237.46 38.4732 237.627 38.7118 237.749 38.9893C237.871 39.2557 237.932 39.5443 237.932 39.8551Z" fill="#000008"/>
<path d="M248.227 44.8184C249.47 44.8184 250.591 45.0238 251.59 45.4345C252.6 45.8341 253.455 46.4168 254.154 47.1827C254.865 47.9375 255.409 48.8533 255.786 49.93C256.163 50.9956 256.352 52.1944 256.352 53.5264C256.352 54.8584 256.163 56.0627 255.786 57.1394C255.409 58.2161 254.865 59.1319 254.154 59.8867C253.455 60.6415 252.6 61.2242 251.59 61.6349C250.591 62.0345 249.47 62.2343 248.227 62.2343C246.973 62.2343 245.84 62.0345 244.83 61.6349C243.831 61.2242 242.977 60.6415 242.266 59.8867C241.556 59.1319 241.006 58.2161 240.618 57.1394C240.241 56.0627 240.052 54.8584 240.052 53.5264C240.052 52.1944 240.241 50.9956 240.618 49.93C241.006 48.8533 241.556 47.9375 242.266 47.1827C242.977 46.4168 243.831 45.8341 244.83 45.4345C245.84 45.0238 246.973 44.8184 248.227 44.8184ZM248.227 59.7035C249.825 59.7035 251.019 59.1652 251.807 58.0885C252.595 57.0118 252.989 55.4966 252.989 53.543C252.989 51.5894 252.595 50.0743 251.807 48.9976C251.019 47.9098 249.825 47.3659 248.227 47.3659C246.606 47.3659 245.396 47.9098 244.597 48.9976C243.809 50.0743 243.415 51.5894 243.415 53.543C243.415 55.4966 243.809 57.0118 244.597 58.0885C245.396 59.1652 246.606 59.7035 248.227 59.7035Z" fill="#000008"/>
<path d="M283.767 56.8718C283.966 56.8718 284.138 56.9495 284.283 57.1049L285.681 58.6367C284.704 59.7911 283.511 60.6847 282.102 61.3174C280.703 61.9501 279.016 62.2664 277.04 62.2664C275.308 62.2664 273.738 61.9667 272.328 61.3673C270.93 60.7679 269.731 59.9299 268.732 58.8532C267.744 57.7765 266.978 56.4889 266.434 54.9904C265.89 53.4919 265.618 51.8435 265.618 50.0453C265.618 48.2471 265.901 46.5988 266.467 45.1003C267.045 43.6018 267.849 42.3142 268.882 41.2375C269.914 40.1608 271.146 39.3227 272.578 38.7233C274.021 38.1239 275.614 37.8242 277.356 37.8242C279.055 37.8242 280.564 38.1017 281.885 38.6567C283.206 39.2117 284.355 39.9499 285.331 40.8712L284.166 42.5195C284.088 42.6416 283.989 42.7415 283.866 42.8192C283.755 42.8969 283.606 42.9358 283.417 42.9358C283.206 42.9358 282.956 42.8303 282.668 42.6194C282.39 42.4085 282.018 42.1754 281.552 41.9201C281.097 41.6537 280.531 41.4151 279.854 41.2042C279.177 40.9933 278.333 40.8878 277.323 40.8878C276.135 40.8878 275.048 41.0987 274.06 41.5205C273.072 41.9312 272.217 42.5306 271.496 43.3187C270.785 44.0957 270.23 45.0559 269.831 46.1992C269.442 47.3314 269.248 48.6134 269.248 50.0453C269.248 51.4994 269.453 52.7926 269.864 53.9248C270.275 55.057 270.841 56.0171 271.562 56.8052C272.284 57.5933 273.133 58.1927 274.11 58.6034C275.086 59.0141 276.141 59.2195 277.273 59.2195C277.961 59.2195 278.577 59.1806 279.121 59.1029C279.676 59.0141 280.181 58.8865 280.636 58.72C281.103 58.5535 281.541 58.3426 281.952 58.0873C282.362 57.8209 282.768 57.5045 283.167 57.1382C283.256 57.0605 283.35 56.9995 283.45 56.9551C283.55 56.8996 283.656 56.8718 283.767 56.8718Z" fill="#000008"/>
<path d="M293.572 44.8184C294.815 44.8184 295.936 45.0238 296.935 45.4345C297.945 45.8341 298.8 46.4168 299.499 47.1827C300.21 47.9375 300.754 48.8533 301.131 49.93C301.509 50.9956 301.697 52.1944 301.697 53.5264C301.697 54.8584 301.509 56.0627 301.131 57.1394C300.754 58.2161 300.21 59.1319 299.499 59.8867C298.8 60.6415 297.945 61.2242 296.935 61.6349C295.936 62.0345 294.815 62.2343 293.572 62.2343C292.318 62.2343 291.186 62.0345 290.176 61.6349C289.177 61.2242 288.322 60.6415 287.612 59.8867C286.901 59.1319 286.352 58.2161 285.963 57.1394C285.586 56.0627 285.397 54.8584 285.397 53.5264C285.397 52.1944 285.586 50.9956 285.963 49.93C286.352 48.8533 286.901 47.9375 287.612 47.1827C288.322 46.4168 289.177 45.8341 290.176 45.4345C291.186 45.0238 292.318 44.8184 293.572 44.8184ZM293.572 59.7035C295.171 59.7035 296.364 59.1652 297.152 58.0885C297.94 57.0118 298.334 55.4966 298.334 53.543C298.334 51.5894 297.94 50.0743 297.152 48.9976C296.364 47.9098 295.171 47.3659 293.572 47.3659C291.952 47.3659 290.742 47.9098 289.942 48.9976C289.154 50.0743 288.76 51.5894 288.76 53.543C288.76 55.4966 289.154 57.0118 289.942 58.0885C290.742 59.1652 291.952 59.7035 293.572 59.7035Z" fill="#000008"/>
<path d="M315.078 49.1787C314.546 48.4794 313.968 47.991 313.347 47.7135C312.736 47.436 312.048 47.2973 311.282 47.2973C309.795 47.2973 308.64 47.8356 307.819 48.9123C307.009 49.9779 306.604 51.5375 306.604 53.591C306.604 54.6677 306.692 55.589 306.87 56.3549C307.059 57.1097 307.325 57.7313 307.669 58.2197C308.024 58.697 308.457 59.0522 308.968 59.2853C309.478 59.5073 310.056 59.6183 310.699 59.6183C311.643 59.6183 312.459 59.4074 313.147 58.9856C313.835 58.5638 314.479 57.9699 315.078 57.204V49.1787ZM318.342 37.4238V61.9992H316.377C315.922 61.9992 315.639 61.7828 315.528 61.3499L315.245 59.4018C314.523 60.2565 313.702 60.9447 312.781 61.4664C311.87 61.977 310.816 62.2323 309.617 62.2323C308.652 62.2323 307.775 62.0436 306.987 61.6662C306.21 61.2888 305.544 60.7394 304.989 60.0179C304.434 59.2853 304.006 58.3806 303.706 57.3039C303.407 56.2272 303.257 54.9896 303.257 53.591C303.257 52.3367 303.423 51.1712 303.756 50.0945C304.089 49.0178 304.572 48.0854 305.205 47.2973C305.838 46.5092 306.604 45.8931 307.503 45.4491C308.402 44.994 309.417 44.7665 310.55 44.7665C311.571 44.7665 312.437 44.933 313.147 45.266C313.868 45.599 314.512 46.0707 315.078 46.6812V37.4238H318.342Z" fill="#000008"/>
<path d="M334.119 51.6616C334.119 51.0178 334.025 50.4239 333.836 49.88C333.658 49.3361 333.392 48.8644 333.037 48.4648C332.682 48.0652 332.249 47.7544 331.738 47.5324C331.228 47.3104 330.639 47.1994 329.973 47.1994C328.608 47.1994 327.531 47.5934 326.743 48.3815C325.966 49.1696 325.472 50.263 325.261 51.6616H334.119ZM336.8 59.587C336.4 60.0532 335.939 60.4583 335.418 60.8024C334.896 61.1354 334.341 61.4074 333.753 61.6183C333.165 61.8292 332.554 61.9846 331.921 62.0845C331.3 62.1844 330.684 62.2343 330.073 62.2343C328.908 62.2343 327.825 62.0401 326.826 61.6516C325.839 61.252 324.978 60.6748 324.246 59.92C323.524 59.1541 322.958 58.2106 322.547 57.0895C322.148 55.9573 321.948 54.6586 321.948 53.1934C321.948 52.0168 322.131 50.9234 322.498 49.9133C322.864 48.8921 323.386 48.0041 324.063 47.2493C324.751 46.4945 325.589 45.9007 326.577 45.4678C327.565 45.0349 328.675 44.8184 329.907 44.8184C330.939 44.8184 331.888 44.9905 332.754 45.3346C333.631 45.6676 334.385 46.156 335.018 46.7998C335.651 47.4436 336.145 48.2372 336.5 49.1807C336.866 50.1242 337.049 51.2009 337.049 52.4108C337.049 52.9103 336.994 53.2489 336.883 53.4265C336.772 53.593 336.567 53.6762 336.267 53.6762H325.178C325.211 54.6863 325.356 55.5688 325.611 56.3236C325.866 57.0673 326.216 57.6889 326.66 58.1884C327.115 58.6879 327.653 59.0597 328.275 59.3039C328.897 59.5481 329.59 59.6702 330.356 59.6702C331.078 59.6702 331.699 59.587 332.221 59.4205C332.754 59.254 333.209 59.0764 333.586 58.8877C333.975 58.6879 334.297 58.5047 334.552 58.3382C334.818 58.1717 335.051 58.0885 335.251 58.0885C335.518 58.0885 335.723 58.1884 335.867 58.3882L336.8 59.587Z" fill="#000008"/>
<mask id="mask0_1_6892" style="mask-type:alpha" maskUnits="userSpaceOnUse" x="23" y="29" width="40" height="41">
<path fill-rule="evenodd" clip-rule="evenodd" d="M51.3648 69.5223C51.9948 69.7677 52.7131 69.752 53.349 69.446L61.5843 65.4833C62.4497 65.0669 63 64.1911 63 63.2303V36.3606C63 35.3998 62.4497 34.524 61.5844 34.1076L53.349 30.1448C52.5145 29.7432 51.5378 29.8416 50.8054 30.3741C50.7008 30.4501 50.6011 30.5351 50.5076 30.6287L34.742 45.0119L27.8749 39.7992C27.2356 39.3139 26.3415 39.3537 25.7477 39.8938L23.5452 41.8973C22.819 42.5579 22.8181 43.7004 23.5434 44.3621L29.4988 49.7954L23.5434 55.2287C22.8181 55.8904 22.819 57.0329 23.5452 57.6935L25.7477 59.697C26.3415 60.2371 27.2356 60.2769 27.8749 59.7916L34.742 54.5789L50.5076 68.9621C50.757 69.2117 51.0498 69.3996 51.3648 69.5223ZM53.0061 40.7149L41.0436 49.7954L53.0061 58.8759V40.7149Z" fill="white"/>
</mask>
<g mask="url(#mask0_1_6892)">
<path d="M61.5815 34.1135L53.3397 30.1452C52.3857 29.6859 51.2456 29.8796 50.497 30.6283L23.5164 55.2284C22.7907 55.89 22.7915 57.0326 23.5182 57.6932L25.7221 59.6967C26.3161 60.2368 27.2108 60.2765 27.8505 59.7913L60.3413 35.143C61.4314 34.316 62.997 35.0935 62.997 36.4617V36.366C62.997 35.4056 62.4468 34.5301 61.5815 34.1135Z" fill="#0065A9"/>
<g filter="url(#filter0_d_1_6892)">
<path d="M61.5815 65.4757L53.3397 69.4439C52.3857 69.9033 51.2456 69.7095 50.497 68.9608L23.5164 44.3608C22.7907 43.6991 22.7915 42.5566 23.5182 41.896L25.7221 39.8924C26.3161 39.3523 27.2108 39.3126 27.8505 39.7978L60.3413 64.4462C61.4314 65.2731 62.997 64.4956 62.997 63.1275V63.2232C62.997 64.1835 62.4468 65.059 61.5815 65.4757Z" fill="#007ACC"/>
</g>
<g filter="url(#filter1_d_1_6892)">
<path d="M53.3431 69.446C52.3888 69.9051 51.2488 69.7109 50.5 68.9622C51.4226 69.8847 53 69.2313 53 67.9266V31.6642C53 30.3595 51.4226 29.7061 50.5 30.6287C51.2488 29.8799 52.3888 29.6859 53.3431 30.1448L61.5835 34.1077C62.4494 34.5241 63 35.3999 63 36.3607V63.2303C63 64.1911 62.4494 65.0669 61.5834 65.4833L53.3431 69.446Z" fill="#1F9CF0"/>
</g>
<g style="mix-blend-mode:overlay" opacity="0.25">
<path fill-rule="evenodd" clip-rule="evenodd" d="M51.3374 69.5223C51.9674 69.7677 52.6858 69.752 53.3216 69.4461L61.557 65.4834C62.4223 65.067 62.9726 64.1912 62.9726 63.2303V36.3607C62.9726 35.3998 62.4224 34.524 61.557 34.1076L53.3216 30.1448C52.4872 29.7433 51.5105 29.8416 50.778 30.3741C50.6734 30.4502 50.5738 30.5351 50.4802 30.6287L34.7147 45.012L27.8475 39.7992C27.2083 39.3139 26.3141 39.3537 25.7204 39.8938L23.5179 41.8973C22.7916 42.5579 22.7908 43.7005 23.5161 44.3622L29.4715 49.7954L23.5161 55.2287C22.7908 55.8904 22.7916 57.0329 23.5179 57.6935L25.7204 59.6971C26.3141 60.2371 27.2083 60.2769 27.8475 59.7917L34.7147 54.5789L50.4802 68.9622C50.7296 69.2117 51.0225 69.3997 51.3374 69.5223ZM52.9787 40.7149L41.0163 49.7954L52.9787 58.8759V40.7149Z" fill="url(#paint0_linear_1_6892)"/>
</g>
</g>
<defs>
<filter id="filter0_d_1_6892" x="19.6393" y="36.1256" width="46.6911" height="36.8991" filterUnits="userSpaceOnUse" color-interpolation-filters="sRGB">
<feFlood flood-opacity="0" result="BackgroundImageFix"/>
<feColorMatrix in="SourceAlpha" type="matrix" values="0 0 0 0 0 0 0 0 0 0 0 0 0 0 0 0 0 0 127 0" result="hardAlpha"/>
<feOffset/>
<feGaussianBlur stdDeviation="1.66667"/>
<feColorMatrix type="matrix" values="0 0 0 0 0 0 0 0 0 0 0 0 0 0 0 0 0 0 0.25 0"/>
<feBlend mode="overlay" in2="BackgroundImageFix" result="effect1_dropShadow_1_6892"/>
<feBlend mode="normal" in="SourceGraphic" in2="effect1_dropShadow_1_6892" result="shape"/>
</filter>
<filter id="filter1_d_1_6892" x="47.1667" y="26.5651" width="19.1667" height="46.4616" filterUnits="userSpaceOnUse" color-interpolation-filters="sRGB">
<feFlood flood-opacity="0" result="BackgroundImageFix"/>
<feColorMatrix in="SourceAlpha" type="matrix" values="0 0 0 0 0 0 0 0 0 0 0 0 0 0 0 0 0 0 127 0" result="hardAlpha"/>
<feOffset/>
<feGaussianBlur stdDeviation="1.66667"/>
<feColorMatrix type="matrix" values="0 0 0 0 0 0 0 0 0 0 0 0 0 0 0 0 0 0 0.25 0"/>
<feBlend mode="overlay" in2="BackgroundImageFix" result="effect1_dropShadow_1_6892"/>
<feBlend mode="normal" in="SourceGraphic" in2="effect1_dropShadow_1_6892" result="shape"/>
</filter>
<linearGradient id="paint0_linear_1_6892" x1="42.9727" y1="29.8985" x2="42.9727" y2="69.6924" gradientUnits="userSpaceOnUse">
<stop stop-color="white"/>
<stop offset="1" stop-color="white" stop-opacity="0"/>
</linearGradient>
</defs>
</svg>
